<svg xmlns="http://www.w3.org/2000/svg" viewBox="0 0 2260.0 920.0" width="2260.0" height="920.0" style="font-family: 'SF Pro Display', system-ui, -apple-system, BlinkMacSystemFont, 'Segoe UI', sans-serif">
<defs><filter id="badge-shadow" x="-40%" y="-40%" width="180%" height="180%"><feDropShadow dx="0" dy="1" stdDeviation="2.5" flood-color="#000" flood-opacity="0.12"/></filter></defs>
<rect width="2260.0" height="920.0" fill="#F8F8F8"/>
<text x="1130.0" y="40" text-anchor="middle" fill="#111827" font-size="20" font-weight="700" font-family="'SF Pro Display', system-ui, -apple-system, BlinkMacSystemFont, 'Segoe UI', sans-serif">CI/CD Deployment Pipeline</text>
<rect x="750.0" y="115.0" width="760.0" height="675.0" rx="14" fill="#FCEDF9" fill-opacity="0.45" stroke="#E396D6" stroke-width="1.5" stroke-dasharray="8,4"/><text x="1130.0" y="107.0" text-anchor="middle" fill="#7E1A6D" font-size="10" font-weight="700" letter-spacing="1.0" opacity="0.85" font-family="'SF Pro Display', system-ui, -apple-system, BlinkMacSystemFont, 'Segoe UI', sans-serif">TEST</text>
<rect x="540.0" y="115.0" width="550.0" height="295.0" rx="14" fill="#EDFCFC" fill-opacity="0.45" stroke="#96E2E3" stroke-width="1.5" stroke-dasharray="8,4"/><text x="815.0" y="107.0" text-anchor="middle" fill="#1A7D7E" font-size="10" font-weight="700" letter-spacing="1.0" opacity="0.85" font-family="'SF Pro Display', system-ui, -apple-system, BlinkMacSystemFont, 'Segoe UI', sans-serif">BUILD &amp; SCAN</text>
<rect x="1800.0" y="115.0" width="340.0" height="295.0" rx="14" fill="#EFEDFC" fill-opacity="0.45" stroke="#A096E3" stroke-width="1.5" stroke-dasharray="8,4"/><text x="1970.0" y="107.0" text-anchor="middle" fill="#281A7E" font-size="10" font-weight="700" letter-spacing="1.0" opacity="0.85" font-family="'SF Pro Display', system-ui, -apple-system, BlinkMacSystemFont, 'Segoe UI', sans-serif">OPS</text>
<rect x="1170.0" y="115.0" width="760.0" height="105.0" rx="14" fill="#EDF4FC" fill-opacity="0.45" stroke="#96B8E3" stroke-width="1.5" stroke-dasharray="8,4"/><text x="1550.0" y="107.0" text-anchor="middle" fill="#1A477E" font-size="10" font-weight="700" letter-spacing="1.0" opacity="0.85" font-family="'SF Pro Display', system-ui, -apple-system, BlinkMacSystemFont, 'Segoe UI', sans-serif">DEPLOY</text>
<rect x="120.0" y="115.0" width="340.0" height="105.0" rx="14" fill="#EDFCF4" fill-opacity="0.45" stroke="#96E3BC" stroke-width="1.5" stroke-dasharray="8,4"/><text x="290.0" y="107.0" text-anchor="middle" fill="#1A7E4C" font-size="10" font-weight="700" letter-spacing="1.0" opacity="0.85" font-family="'SF Pro Display', system-ui, -apple-system, BlinkMacSystemFont, 'Segoe UI', sans-serif">SOURCE CONTROL</text>
<path d="M185.0,175.0 L290.0,175.0 L290.0,155.0 L395.0,155.0" fill="none" stroke="#B8BFC8" stroke-width="1.6" stroke-linecap="round" stroke-linejoin="round"/><polygon points="395.0,155.0 386.71045105397405,158.50476508077784 386.71045105397405,151.49523491922216" fill="#B8BFC8"/>
<path d="M395.0,155.0 L605.0,155.0" fill="none" stroke="#B8BFC8" stroke-width="1.6" stroke-linecap="round" stroke-linejoin="round"/><polygon points="605.0,155.0 596.710451053974,158.50476508077784 596.710451053974,151.49523491922216" fill="#B8BFC8"/>
<path d="M605.0,155.0 L815.0,155.0" fill="none" stroke="#B8BFC8" stroke-width="1.6" stroke-linecap="round" stroke-linejoin="round"/><polygon points="815.0,155.0 806.710451053974,158.50476508077784 806.710451053974,151.49523491922216" fill="#B8BFC8"/>
<path d="M815.0,155.0 L1025.0,155.0" fill="none" stroke="#B8BFC8" stroke-width="1.6" stroke-linecap="round" stroke-linejoin="round"/><polygon points="1025.0,155.0 1016.710451053974,158.50476508077784 1016.710451053974,151.49523491922216" fill="#B8BFC8"/>
<path d="M605.0,155.0 L704.0,155.0 L704.0,365.0 L815.0,365.0" fill="none" stroke="#B8BFC8" stroke-width="1.6" stroke-linecap="round" stroke-linejoin="round"/><polygon points="815.0,365.0 806.710451053974,368.5047650807779 806.710451053974,361.4952349192221" fill="#B8BFC8"/>
<path d="M605.0,155.0 L710.0,155.0 L710.0,555.0 L815.0,555.0" fill="none" stroke="#B8BFC8" stroke-width="1.6" stroke-linecap="round" stroke-linejoin="round"/><polygon points="815.0,555.0 806.710451053974,558.5047650807778 806.710451053974,551.4952349192222" fill="#B8BFC8"/>
<path d="M605.0,155.0 L716.0,155.0 L716.0,745.0 L815.0,745.0" fill="none" stroke="#B8BFC8" stroke-width="1.6" stroke-linecap="round" stroke-linejoin="round"/><polygon points="815.0,745.0 806.710451053974,748.5047650807778 806.710451053974,741.4952349192222" fill="#B8BFC8"/>
<path d="M1025.0,155.0 L1235.0,155.0" fill="none" stroke="#B8BFC8" stroke-width="1.6" stroke-linecap="round" stroke-linejoin="round"/><polygon points="1235.0,155.0 1226.710451053974,158.50476508077784 1226.710451053974,151.49523491922216" fill="#B8BFC8"/>
<path d="M1235.0,155.0 L1340.0,155.0 L1340.0,175.0 L1445.0,175.0" fill="none" stroke="#B8BFC8" stroke-width="1.6" stroke-linecap="round" stroke-linejoin="round"/><polygon points="1445.0,175.0 1436.710451053974,178.50476508077784 1436.710451053974,171.49523491922216" fill="#B8BFC8"/>
<path d="M1445.0,175.0 L1550.0,175.0 L1550.0,155.0 L1655.0,155.0" fill="none" stroke="#B8BFC8" stroke-width="1.6" stroke-linecap="round" stroke-linejoin="round"/><polygon points="1655.0,155.0 1646.710451053974,158.50476508077784 1646.710451053974,151.49523491922216" fill="#B8BFC8"/>
<path d="M1655.0,155.0 L1865.0,155.0" fill="none" stroke="#B8BFC8" stroke-width="1.6" stroke-linecap="round" stroke-linejoin="round"/><polygon points="1865.0,155.0 1856.710451053974,158.50476508077784 1856.710451053974,151.49523491922216" fill="#B8BFC8"/>
<path d="M1865.0,155.0 L2075.0,155.0" fill="none" stroke="#B8BFC8" stroke-width="1.6" stroke-linecap="round" stroke-linejoin="round"/><polygon points="2075.0,155.0 2066.710451053974,158.50476508077784 2066.710451053974,151.49523491922216" fill="#B8BFC8"/>
<path d="M1655.0,155.0 L1760.0,155.0 L1760.0,345.0 L1865.0,345.0" fill="none" stroke="#B8BFC8" stroke-width="1.6" stroke-linecap="round" stroke-linejoin="round"/><polygon points="1865.0,345.0 1856.710451053974,348.5047650807779 1856.710451053974,341.4952349192221" fill="#B8BFC8"/>
<path d="M1865.0,345.0 L2075.0,345.0" fill="none" stroke="#B8BFC8" stroke-width="1.6" stroke-linecap="round" stroke-linejoin="round"/><polygon points="2075.0,345.0 2066.710451053974,348.5047650807779 2066.710451053974,341.4952349192221" fill="#B8BFC8"/>
<rect x="124.1" y="149.0" width="121.8" height="52" rx="26.0" fill="#F9FAFB" stroke="#E5E7EB" stroke-width="1.2"/><text x="185.0" y="171.05" text-anchor="middle" fill="#1F2937" font-size="13" font-weight="600" font-family="'SF Pro Display', system-ui, -apple-system, BlinkMacSystemFont, 'Segoe UI', sans-serif">Developer</text><text x="185.0" y="188.05" text-anchor="middle" fill="#1F2937" font-size="13" font-weight="600" font-family="'SF Pro Display', system-ui, -apple-system, BlinkMacSystemFont, 'Segoe UI', sans-serif">Workstation</text>
<svg x="361.0" y="121.0" width="68.0" height="68.0" viewBox="0.0 0.0 256.0 256.0"><path fill="#DE4C36" d="M251.172 116.594L139.4 4.828c-6.433-6.437-16.873-6.437-23.314 0l-23.21 23.21l29.443 29.443c6.842-2.312 14.688-.761 20.142 4.693c5.48 5.489 7.02 13.402 4.652 20.266l28.375 28.376c6.865-2.365 14.786-.835 20.269 4.657c7.663 7.66 7.663 20.075 0 27.74c-7.665 7.666-20.08 7.666-27.749 0c-5.764-5.77-7.188-14.235-4.27-21.336l-26.462-26.462l-.003 69.637a19.8 19.8 0 0 1 5.188 3.71c7.663 7.66 7.663 20.076 0 27.747c-7.665 7.662-20.086 7.662-27.74 0c-7.663-7.671-7.663-20.086 0-27.746a19.7 19.7 0 0 1 6.421-4.281V94.196a19.4 19.4 0 0 1-6.421-4.281c-5.806-5.798-7.202-14.317-4.227-21.446L81.47 39.442L4.83 116.077c-6.44 6.443-6.44 16.884 0 23.322l111.774 111.768c6.435 6.438 16.873 6.438 23.316 0l111.251-111.249c6.438-6.44 6.438-16.887 0-23.324"/></svg><text x="395.0" y="207.0" text-anchor="middle" fill="#1F2937" font-size="13" font-weight="600" letter-spacing="0.2" font-family="'SF Pro Display', system-ui, -apple-system, BlinkMacSystemFont, 'Segoe UI', sans-serif">GitHub Repository</text>
<svg x="571.0" y="121.0" width="68.0" height="68.0" viewBox="0.0 0.0 256.0 256.0"><path fill="#4A7EBF" d="M53.604 0c29.604 0 53.604 23.992 53.604 53.59c0 29.09-23.189 52.75-52.093 53.553c0 2.461.109 7.111 1.501 9.92c1.933 3.893 13.525 11.144 24.892 11.144h4.084c2.567-18.271 18.257-32.332 37.24-32.332c18.906 0 34.55 13.946 37.211 32.11h21.13c2.661-18.164 18.304-32.11 37.21-32.11c20.775 0 37.617 16.837 37.617 37.607s-16.842 37.606-37.617 37.606c-18.906 0-34.55-13.948-37.21-32.11h-21.129c-2.66 18.162-18.305 32.11-37.212 32.11c-18.87 0-34.494-13.893-37.199-32.007l-4.515.135c-7.435-.056-15.29-2.042-21.598-6.328c-1.72-1.169-3.415-2.397-5.182-3.56v2.441c-.01.79-.153 12.657-.164 25.833v2.79c.005 8.641.073 17.545.277 24.04c.446 14.246 12.034 25.745 24.822 28.436c1.663.35 4.52.394 6.321.238c2.571-18.264 18.26-32.32 37.238-32.32c20.774 0 37.616 16.838 37.616 37.607c0 20.77-16.842 37.607-37.616 37.607c-18.769 0-34.323-13.744-37.153-31.714h-3.254c-24.436-1.334-39.628-23.746-39.363-41.923c.334-22.877.082-45.764.079-68.646v-7.565C18.546 101.286 0 79.606 0 53.591C0 23.992 23.999 0 53.604 0m69.228 191.78c-14.701 0-26.62 11.915-26.62 26.613s11.919 26.614 26.62 26.614s26.62-11.915 26.62-26.614c0-14.698-11.918-26.614-26.62-26.614m0-84.912c-14.701 0-26.62 11.915-26.62 26.614c0 14.697 11.919 26.613 26.62 26.613s26.62-11.916 26.62-26.613c0-14.699-11.918-26.614-26.62-26.614m95.551 0c-14.702 0-26.62 11.915-26.62 26.614c0 14.697 11.918 26.613 26.62 26.613s26.621-11.916 26.621-26.613c0-14.699-11.918-26.614-26.62-26.614m15.161 15.408a5.496 5.496 0 0 1 .17 7.606l-.16.168l-16.31 16.345a5.5 5.5 0 0 1-7.576.198l-.172-.163l-7.985-7.86a5.496 5.496 0 0 1-.06-7.773a5.5 5.5 0 0 1 7.606-.22l.168.16l4.092 4.027l12.452-12.477a5.5 5.5 0 0 1 7.775-.01m-95.99-.08a5.497 5.497 0 0 1 .17 7.606l-.16.168l-16.31 16.344a5.5 5.5 0 0 1-7.576.198l-.172-.163l-7.985-7.86a5.498 5.498 0 0 1 7.546-7.992l.168.16l4.093 4.027l12.451-12.478a5.5 5.5 0 0 1 7.775-.01M53.604 10.993c-23.532 0-42.608 19.07-42.608 42.598c0 23.525 19.076 42.597 42.608 42.597s42.608-19.072 42.608-42.597c0-23.527-19.076-42.598-42.608-42.598M49.171 28.13A744 744 0 0 1 75.7 44.841c7.308 4.82 7.29 13.563-.1 18.394a609 609 0 0 1-27.058 16.712c-7.455 4.34-15.8-.65-16.002-9.344c-.13-5.602-.024-11.21-.032-16.817c-.006-5.454-.113-10.911.019-16.363c.222-9.248 8.736-14.066 16.643-9.293m-5.91 8.872v3.868l-.001 5.674l-.001 3.71v5.482c0 4.23.002 8.394.01 12.557c.003 1.96 1.023 1.88 2.343 1.063q11.408-7.071 22.827-14.127c1.258-.776 1.294-1.587.06-2.365c-8.154-5.139-16.318-10.26-25.238-15.862"/><path fill="#85B3DF" d="M133.227 223.88a5.497 5.497 0 1 0 .001-10.996a5.497 5.497 0 0 0 0 10.995m-21.049.001a5.497 5.497 0 1 0 0-10.996a5.497 5.497 0 0 0 0 10.995m106.205 21.128c-14.702 0-26.62-11.915-26.62-26.614c0-14.698 11.918-26.614 26.62-26.614c14.701 0 26.62 11.916 26.62 26.614s-11.919 26.614-26.62 26.614m0-64.22c-18.906 0-34.55 13.947-37.211 32.11h-6.153c-2.685 0-4.864 2.461-4.864 5.496s2.179 5.497 4.864 5.497h6.153c2.66 18.163 18.305 32.11 37.21 32.11C239.159 256 256 239.162 256 218.393c0-20.77-16.842-37.607-37.616-37.607"/></svg><text x="605.0" y="207.0" text-anchor="middle" fill="#1F2937" font-size="13" font-weight="600" letter-spacing="0.2" font-family="'SF Pro Display', system-ui, -apple-system, BlinkMacSystemFont, 'Segoe UI', sans-serif">GitHub Actions</text><text x="605.0" y="224.0" text-anchor="middle" fill="#1F2937" font-size="13" font-weight="600" letter-spacing="0.2" font-family="'SF Pro Display', system-ui, -apple-system, BlinkMacSystemFont, 'Segoe UI', sans-serif">Runner</text>
<g transform="translate(781.0,121.0)"><path d="M17.0,43.0 Q13.0,47.0 17.0,53.0 Q34.0,61.0 56.0,49.0 Q56.0,43.0 52.0,41.0" fill="#2496ED" opacity="0.3"/><rect x="21.0" y="32.0" width="7" height="5" rx="1" fill="#2496ED" stroke="#1D7DC4" stroke-width="0.5"/><rect x="29.5" y="32.0" width="7" height="5" rx="1" fill="#2496ED" stroke="#1D7DC4" stroke-width="0.5"/><rect x="38.0" y="32.0" width="7" height="5" rx="1" fill="#2496ED" stroke="#1D7DC4" stroke-width="0.5"/><rect x="29.5" y="25.5" width="7" height="5" rx="1" fill="#2496ED" stroke="#1D7DC4" stroke-width="0.5"/><rect x="38.0" y="25.5" width="7" height="5" rx="1" fill="#2496ED" stroke="#1D7DC4" stroke-width="0.5"/><rect x="46.5" y="25.5" width="7" height="5" rx="1" fill="#2496ED" stroke="#1D7DC4" stroke-width="0.5"/><rect x="38.0" y="19.0" width="7" height="5" rx="1" fill="#2496ED" stroke="#1D7DC4" stroke-width="0.5"/><rect x="46.5" y="19.0" width="7" height="5" rx="1" fill="#2496ED" stroke="#1D7DC4" stroke-width="0.5"/><rect x="55.0" y="19.0" width="7" height="5" rx="1" fill="#2496ED" stroke="#1D7DC4" stroke-width="0.5"/></g><text x="815.0" y="207.0" text-anchor="middle" fill="#1F2937" font-size="13" font-weight="600" letter-spacing="0.2" font-family="'SF Pro Display', system-ui, -apple-system, BlinkMacSystemFont, 'Segoe UI', sans-serif">Docker Build</text><text x="815.0" y="224.0" text-anchor="middle" fill="#1F2937" font-size="13" font-weight="600" letter-spacing="0.2" font-family="'SF Pro Display', system-ui, -apple-system, BlinkMacSystemFont, 'Segoe UI', sans-serif">Server</text>
<g transform="translate(991.0,121.0)"><path d="M17.0,43.0 Q13.0,47.0 17.0,53.0 Q34.0,61.0 56.0,49.0 Q56.0,43.0 52.0,41.0" fill="#2496ED" opacity="0.3"/><rect x="21.0" y="32.0" width="7" height="5" rx="1" fill="#2496ED" stroke="#1D7DC4" stroke-width="0.5"/><rect x="29.5" y="32.0" width="7" height="5" rx="1" fill="#2496ED" stroke="#1D7DC4" stroke-width="0.5"/><rect x="38.0" y="32.0" width="7" height="5" rx="1" fill="#2496ED" stroke="#1D7DC4" stroke-width="0.5"/><rect x="29.5" y="25.5" width="7" height="5" rx="1" fill="#2496ED" stroke="#1D7DC4" stroke-width="0.5"/><rect x="38.0" y="25.5" width="7" height="5" rx="1" fill="#2496ED" stroke="#1D7DC4" stroke-width="0.5"/><rect x="46.5" y="25.5" width="7" height="5" rx="1" fill="#2496ED" stroke="#1D7DC4" stroke-width="0.5"/><rect x="38.0" y="19.0" width="7" height="5" rx="1" fill="#2496ED" stroke="#1D7DC4" stroke-width="0.5"/><rect x="46.5" y="19.0" width="7" height="5" rx="1" fill="#2496ED" stroke="#1D7DC4" stroke-width="0.5"/><rect x="55.0" y="19.0" width="7" height="5" rx="1" fill="#2496ED" stroke="#1D7DC4" stroke-width="0.5"/></g><text x="1025.0" y="207.0" text-anchor="middle" fill="#1F2937" font-size="13" font-weight="600" letter-spacing="0.2" font-family="'SF Pro Display', system-ui, -apple-system, BlinkMacSystemFont, 'Segoe UI', sans-serif">Container Registry</text>
<rect x="730.7" y="347.5" width="168.6" height="35" rx="17.5" fill="#F9FAFB" stroke="#E5E7EB" stroke-width="1.2"/><text x="815.0" y="369.55" text-anchor="middle" fill="#1F2937" font-size="13" font-weight="600" font-family="'SF Pro Display', system-ui, -apple-system, BlinkMacSystemFont, 'Segoe UI', sans-serif">SonarQube Scanner</text>
<rect x="734.6" y="537.5" width="160.8" height="35" rx="17.5" fill="#F9FAFB" stroke="#E5E7EB" stroke-width="1.2"/><text x="815.0" y="559.55" text-anchor="middle" fill="#1F2937" font-size="13" font-weight="600" font-family="'SF Pro Display', system-ui, -apple-system, BlinkMacSystemFont, 'Segoe UI', sans-serif">Unit Test Runner</text>
<rect x="734.6" y="719.0" width="160.8" height="52" rx="26.0" fill="#F9FAFB" stroke="#E5E7EB" stroke-width="1.2"/><text x="815.0" y="741.05" text-anchor="middle" fill="#1F2937" font-size="13" font-weight="600" font-family="'SF Pro Display', system-ui, -apple-system, BlinkMacSystemFont, 'Segoe UI', sans-serif">Integration Test</text><text x="815.0" y="758.05" text-anchor="middle" fill="#1F2937" font-size="13" font-weight="600" font-family="'SF Pro Display', system-ui, -apple-system, BlinkMacSystemFont, 'Segoe UI', sans-serif">Runner</text>
<rect x="1372.4" y="157.5" width="145.2" height="35" rx="17.5" fill="#F9FAFB" stroke="#E5E7EB" stroke-width="1.2"/><text x="1445.0" y="179.55" text-anchor="middle" fill="#1F2937" font-size="13" font-weight="600" font-family="'SF Pro Display', system-ui, -apple-system, BlinkMacSystemFont, 'Segoe UI', sans-serif">E2E Test Suite</text>
<g transform="translate(1201.0,121.0)"><path d="M34.0,6.799999999999997 L57.55589098293673,20.4 L57.55589098293673,47.6 L34.0,61.2 L10.444109017063266,47.6 L10.444109017063269,20.399999999999995Z" fill="#326CE5" stroke="#2457B5" stroke-width="1.5"/><line x1="34.0" y1="34.0" x2="34.0" y2="19.04" stroke="white" stroke-width="2" opacity="0.8"/><line x1="34.0" y1="34.0" x2="46.955740040615204" y2="26.52" stroke="white" stroke-width="2" opacity="0.8"/><line x1="34.0" y1="34.0" x2="46.955740040615204" y2="41.480000000000004" stroke="white" stroke-width="2" opacity="0.8"/><line x1="34.0" y1="34.0" x2="34.0" y2="48.96" stroke="white" stroke-width="2" opacity="0.8"/><line x1="34.0" y1="34.0" x2="21.044259959384796" y2="41.480000000000004" stroke="white" stroke-width="2" opacity="0.8"/><line x1="34.0" y1="34.0" x2="21.044259959384796" y2="26.519999999999996" stroke="white" stroke-width="2" opacity="0.8"/><circle cx="34.0" cy="34.0" r="4" fill="white"/></g><text x="1235.0" y="207.0" text-anchor="middle" fill="#1F2937" font-size="13" font-weight="600" letter-spacing="0.2" font-family="'SF Pro Display', system-ui, -apple-system, BlinkMacSystemFont, 'Segoe UI', sans-serif">Staging Kubernetes</text>
<g transform="translate(1621.0,121.0)"><path d="M34.0,6.799999999999997 L57.55589098293673,20.4 L57.55589098293673,47.6 L34.0,61.2 L10.444109017063266,47.6 L10.444109017063269,20.399999999999995Z" fill="#326CE5" stroke="#2457B5" stroke-width="1.5"/><line x1="34.0" y1="34.0" x2="34.0" y2="19.04" stroke="white" stroke-width="2" opacity="0.8"/><line x1="34.0" y1="34.0" x2="46.955740040615204" y2="26.52" stroke="white" stroke-width="2" opacity="0.8"/><line x1="34.0" y1="34.0" x2="46.955740040615204" y2="41.480000000000004" stroke="white" stroke-width="2" opacity="0.8"/><line x1="34.0" y1="34.0" x2="34.0" y2="48.96" stroke="white" stroke-width="2" opacity="0.8"/><line x1="34.0" y1="34.0" x2="21.044259959384796" y2="41.480000000000004" stroke="white" stroke-width="2" opacity="0.8"/><line x1="34.0" y1="34.0" x2="21.044259959384796" y2="26.519999999999996" stroke="white" stroke-width="2" opacity="0.8"/><circle cx="34.0" cy="34.0" r="4" fill="white"/></g><text x="1655.0" y="207.0" text-anchor="middle" fill="#1F2937" font-size="13" font-weight="600" letter-spacing="0.2" font-family="'SF Pro Display', system-ui, -apple-system, BlinkMacSystemFont, 'Segoe UI', sans-serif">Production</text><text x="1655.0" y="224.0" text-anchor="middle" fill="#1F2937" font-size="13" font-weight="600" letter-spacing="0.2" font-family="'SF Pro Display', system-ui, -apple-system, BlinkMacSystemFont, 'Segoe UI', sans-serif">Kubernetes</text>
<g transform="translate(1831.0,121.0)"><ellipse cx="34.0" cy="17.340000000000003" rx="20.4" ry="7.139999999999999" fill="#3B82F6"/><rect x="13.600000000000001" y="17.340000000000003" width="40.8" height="33.31999999999999" fill="#3B82F6"/><ellipse cx="34.0" cy="50.66" rx="20.4" ry="7.139999999999999" fill="#2563EB"/><ellipse cx="34.0" cy="17.340000000000003" rx="20.4" ry="7.139999999999999" fill="#60A5FA"/><text x="34.0" y="38.0" text-anchor="middle" fill="white" font-size="12" font-weight="700" font-family="system-ui">DB</text></g><text x="1865.0" y="207.0" text-anchor="middle" fill="#1F2937" font-size="13" font-weight="600" letter-spacing="0.2" font-family="'SF Pro Display', system-ui, -apple-system, BlinkMacSystemFont, 'Segoe UI', sans-serif">Database Migration</text><text x="1865.0" y="224.0" text-anchor="middle" fill="#1F2937" font-size="13" font-weight="600" letter-spacing="0.2" font-family="'SF Pro Display', system-ui, -apple-system, BlinkMacSystemFont, 'Segoe UI', sans-serif">Tool</text>
<svg x="2041.0" y="121.0" width="68.0" height="68.0" viewBox="0.0 0.0 256.0 256.0"><path fill="#FFD814" d="m0 0l127.56 256L256 0zm142.698 51.384h14.859v14.859h-14.859zm-29.557 59.354H98.323V95.92h14.818zm0-22.267H98.323V73.692h14.818zm0-22.228H98.323V51.384h14.818zm22.428 66.763h-14.818v-14.858h14.818zm0-22.268h-14.818V95.92h14.818zm0-22.267h-14.818V73.692h14.818zm0-22.228h-14.818V51.384h14.818zm7.13 7.45h14.858V88.51h-14.859zm0 37.085V95.96h14.858v14.818z"/></svg><text x="2075.0" y="207.0" text-anchor="middle" fill="#1F2937" font-size="13" font-weight="600" letter-spacing="0.2" font-family="'SF Pro Display', system-ui, -apple-system, BlinkMacSystemFont, 'Segoe UI', sans-serif">Vault Secrets</text>
<g transform="translate(1831.0,311.0)"><rect x="2" y="2" width="64" height="64" rx="6" fill="#6B7280" opacity="0.15"/><rect x="6" y="6" width="56" height="56" rx="4" fill="#374151"/><circle cx="12.0" cy="12.0" r="2.5" fill="#34D399"/><circle cx="12.0" cy="26.666666666666664" r="2.5" fill="#34D399"/><circle cx="12.0" cy="41.33333333333333" r="2.5" fill="#34D399"/><circle cx="12.0" cy="56.0" r="2.5" fill="#34D399"/><circle cx="26.666666666666664" cy="12.0" r="2.5" fill="#34D399"/><circle cx="26.666666666666664" cy="26.666666666666664" r="2.5" fill="#34D399"/><circle cx="26.666666666666664" cy="41.33333333333333" r="2.5" fill="#34D399"/><circle cx="26.666666666666664" cy="56.0" r="2.5" fill="#34D399"/><circle cx="41.33333333333333" cy="12.0" r="2.5" fill="#34D399"/><circle cx="41.33333333333333" cy="26.666666666666664" r="2.5" fill="#34D399"/><circle cx="41.33333333333333" cy="41.33333333333333" r="2.5" fill="#34D399"/><circle cx="41.33333333333333" cy="56.0" r="2.5" fill="#34D399"/><circle cx="56.0" cy="12.0" r="2.5" fill="#34D399"/><circle cx="56.0" cy="26.666666666666664" r="2.5" fill="#34D399"/><circle cx="56.0" cy="41.33333333333333" r="2.5" fill="#34D399"/><circle cx="56.0" cy="56.0" r="2.5" fill="#34D399"/></g><text x="1865.0" y="397.0" text-anchor="middle" fill="#1F2937" font-size="13" font-weight="600" letter-spacing="0.2" font-family="'SF Pro Display', system-ui, -apple-system, BlinkMacSystemFont, 'Segoe UI', sans-serif">Monitoring</text><text x="1865.0" y="414.0" text-anchor="middle" fill="#1F2937" font-size="13" font-weight="600" letter-spacing="0.2" font-family="'SF Pro Display', system-ui, -apple-system, BlinkMacSystemFont, 'Segoe UI', sans-serif">Dashboard</text>
<svg x="2041.0" y="311.0" width="68.0" height="68.0" viewBox="0.0 0.0 256.0 256.0"><path fill="#E01E5A" d="M53.841 161.32c0 14.832-11.987 26.82-26.819 26.82S.203 176.152.203 161.32c0-14.831 11.987-26.818 26.82-26.818H53.84zm13.41 0c0-14.831 11.987-26.818 26.819-26.818s26.819 11.987 26.819 26.819v67.047c0 14.832-11.987 26.82-26.82 26.82c-14.83 0-26.818-11.988-26.818-26.82z"/><path fill="#36C5F0" d="M94.07 53.638c-14.832 0-26.82-11.987-26.82-26.819S79.239 0 94.07 0s26.819 11.987 26.819 26.819v26.82zm0 13.613c14.832 0 26.819 11.987 26.819 26.819s-11.987 26.819-26.82 26.819H26.82C11.987 120.889 0 108.902 0 94.069c0-14.83 11.987-26.818 26.819-26.818z"/><path fill="#2EB67D" d="M201.55 94.07c0-14.832 11.987-26.82 26.818-26.82s26.82 11.988 26.82 26.82s-11.988 26.819-26.82 26.819H201.55zm-13.41 0c0 14.832-11.988 26.819-26.82 26.819c-14.831 0-26.818-11.987-26.818-26.82V26.82C134.502 11.987 146.489 0 161.32 0s26.819 11.987 26.819 26.819z"/><path fill="#ECB22E" d="M161.32 201.55c14.832 0 26.82 11.987 26.82 26.818s-11.988 26.82-26.82 26.82c-14.831 0-26.818-11.988-26.818-26.82V201.55zm0-13.41c-14.831 0-26.818-11.988-26.818-26.82c0-14.831 11.987-26.818 26.819-26.818h67.25c14.832 0 26.82 11.987 26.82 26.819s-11.988 26.819-26.82 26.819z"/></svg><text x="2075.0" y="397.0" text-anchor="middle" fill="#1F2937" font-size="13" font-weight="600" letter-spacing="0.2" font-family="'SF Pro Display', system-ui, -apple-system, BlinkMacSystemFont, 'Segoe UI', sans-serif">Slack</text><text x="2075.0" y="414.0" text-anchor="middle" fill="#1F2937" font-size="13" font-weight="600" letter-spacing="0.2" font-family="'SF Pro Display', system-ui, -apple-system, BlinkMacSystemFont, 'Segoe UI', sans-serif">Notifications</text>
<g filter="url(#badge-shadow)"><circle cx="290.0" cy="167.0" r="17" fill="white"/><circle cx="290.0" cy="167.0" r="14" fill="#6366F1"/><text x="290.0" y="171.0" text-anchor="middle" fill="white" font-size="11" font-weight="700" letter-spacing="0.3" font-family="'SF Pro Display', system-ui, -apple-system, BlinkMacSystemFont, 'Segoe UI', sans-serif">1</text></g>
<g filter="url(#badge-shadow)"><circle cx="500.0" cy="155.0" r="17" fill="white"/><circle cx="500.0" cy="155.0" r="14" fill="#8B5CF6"/><text x="500.0" y="159.0" text-anchor="middle" fill="white" font-size="11" font-weight="700" letter-spacing="0.3" font-family="'SF Pro Display', system-ui, -apple-system, BlinkMacSystemFont, 'Segoe UI', sans-serif">2</text></g>
<g filter="url(#badge-shadow)"><circle cx="710.0" cy="155.0" r="17" fill="white"/><circle cx="710.0" cy="155.0" r="14" fill="#A855F7"/><text x="710.0" y="159.0" text-anchor="middle" fill="white" font-size="11" font-weight="700" letter-spacing="0.3" font-family="'SF Pro Display', system-ui, -apple-system, BlinkMacSystemFont, 'Segoe UI', sans-serif">3</text></g>
<g filter="url(#badge-shadow)"><circle cx="920.0" cy="155.0" r="17" fill="white"/><circle cx="920.0" cy="155.0" r="14" fill="#4F46E5"/><text x="920.0" y="159.0" text-anchor="middle" fill="white" font-size="11" font-weight="700" letter-spacing="0.3" font-family="'SF Pro Display', system-ui, -apple-system, BlinkMacSystemFont, 'Segoe UI', sans-serif">7</text></g>
<g filter="url(#badge-shadow)"><circle cx="704.0" cy="239.0" r="17" fill="white"/><circle cx="704.0" cy="239.0" r="14" fill="#7C3AED"/><text x="704.0" y="243.0" text-anchor="middle" fill="white" font-size="11" font-weight="700" letter-spacing="0.3" font-family="'SF Pro Display', system-ui, -apple-system, BlinkMacSystemFont, 'Segoe UI', sans-serif">4</text></g>
<g filter="url(#badge-shadow)"><circle cx="710.0" cy="315.0" r="17" fill="white"/><circle cx="710.0" cy="315.0" r="14" fill="#6D28D9"/><text x="710.0" y="319.0" text-anchor="middle" fill="white" font-size="11" font-weight="700" letter-spacing="0.3" font-family="'SF Pro Display', system-ui, -apple-system, BlinkMacSystemFont, 'Segoe UI', sans-serif">5</text></g>
<g filter="url(#badge-shadow)"><circle cx="716.0" cy="391.0" r="17" fill="white"/><circle cx="716.0" cy="391.0" r="14" fill="#5B21B6"/><text x="716.0" y="395.0" text-anchor="middle" fill="white" font-size="11" font-weight="700" letter-spacing="0.3" font-family="'SF Pro Display', system-ui, -apple-system, BlinkMacSystemFont, 'Segoe UI', sans-serif">6</text></g>
<g filter="url(#badge-shadow)"><circle cx="1130.0" cy="155.0" r="17" fill="white"/><circle cx="1130.0" cy="155.0" r="14" fill="#4338CA"/><text x="1130.0" y="159.0" text-anchor="middle" fill="white" font-size="11" font-weight="700" letter-spacing="0.3" font-family="'SF Pro Display', system-ui, -apple-system, BlinkMacSystemFont, 'Segoe UI', sans-serif">8</text></g>
<g filter="url(#badge-shadow)"><circle cx="1340.0" cy="163.0" r="17" fill="white"/><circle cx="1340.0" cy="163.0" r="14" fill="#3730A3"/><text x="1340.0" y="167.0" text-anchor="middle" fill="white" font-size="11" font-weight="700" letter-spacing="0.3" font-family="'SF Pro Display', system-ui, -apple-system, BlinkMacSystemFont, 'Segoe UI', sans-serif">9</text></g>
<g filter="url(#badge-shadow)"><circle cx="1550.0" cy="167.0" r="17" fill="white"/><circle cx="1550.0" cy="167.0" r="14" fill="#312E81"/><text x="1550.0" y="171.0" text-anchor="middle" fill="white" font-size="11" font-weight="700" letter-spacing="0.3" font-family="'SF Pro Display', system-ui, -apple-system, BlinkMacSystemFont, 'Segoe UI', sans-serif">10</text></g>
<g filter="url(#badge-shadow)"><circle cx="1760.0" cy="155.0" r="17" fill="white"/><circle cx="1760.0" cy="155.0" r="14" fill="#6366F1"/><text x="1760.0" y="159.0" text-anchor="middle" fill="white" font-size="11" font-weight="700" letter-spacing="0.3" font-family="'SF Pro Display', system-ui, -apple-system, BlinkMacSystemFont, 'Segoe UI', sans-serif">11</text></g>
<g filter="url(#badge-shadow)"><circle cx="1970.0" cy="155.0" r="17" fill="white"/><circle cx="1970.0" cy="155.0" r="14" fill="#A855F7"/><text x="1970.0" y="159.0" text-anchor="middle" fill="white" font-size="11" font-weight="700" letter-spacing="0.3" font-family="'SF Pro Display', system-ui, -apple-system, BlinkMacSystemFont, 'Segoe UI', sans-serif">13</text></g>
<g filter="url(#badge-shadow)"><circle cx="1760.0" cy="231.0" r="17" fill="white"/><circle cx="1760.0" cy="231.0" r="14" fill="#8B5CF6"/><text x="1760.0" y="235.0" text-anchor="middle" fill="white" font-size="11" font-weight="700" letter-spacing="0.3" font-family="'SF Pro Display', system-ui, -apple-system, BlinkMacSystemFont, 'Segoe UI', sans-serif">12</text></g>
<g filter="url(#badge-shadow)"><circle cx="1970.0" cy="345.0" r="17" fill="white"/><circle cx="1970.0" cy="345.0" r="14" fill="#7C3AED"/><text x="1970.0" y="349.0" text-anchor="middle" fill="white" font-size="11" font-weight="700" letter-spacing="0.3" font-family="'SF Pro Display', system-ui, -apple-system, BlinkMacSystemFont, 'Segoe UI', sans-serif">14</text></g>
</svg>