<svg xmlns="http://www.w3.org/2000/svg" viewBox="0 0 2050.0 1490.0" width="2050.0" height="1490.0" style="font-family: 'SF Pro Display', system-ui, -apple-system, BlinkMacSystemFont, 'Segoe UI', sans-serif">
<defs><filter id="badge-shadow" x="-40%" y="-40%" width="180%" height="180%"><feDropShadow dx="0" dy="1" stdDeviation="2.5" flood-color="#000" flood-opacity="0.12"/></filter></defs>
<rect width="2050.0" height="1490.0" fill="#F8F8F8"/>
<text x="1025.0" y="40" text-anchor="middle" fill="#111827" font-size="20" font-weight="700" font-family="'SF Pro Display', system-ui, -apple-system, BlinkMacSystemFont, 'Segoe UI', sans-serif">Full Hybrid Architecture</text>
<rect x="120.0" y="115.0" width="1600.0" height="1055.0" rx="14" fill="#EDF7FC" fill-opacity="0.45" stroke="#96C9E3" stroke-width="1.5" stroke-dasharray="8,4"/><text x="920.0" y="107.0" text-anchor="middle" fill="#1A5D7E" font-size="10" font-weight="700" letter-spacing="1.0" opacity="0.85" font-family="'SF Pro Display', system-ui, -apple-system, BlinkMacSystemFont, 'Segoe UI', sans-serif">COMMERCE</text>
<rect x="120.0" y="115.0" width="1180.0" height="865.0" rx="14" fill="#EDFCF8" fill-opacity="0.45" stroke="#96E3CF" stroke-width="1.5" stroke-dasharray="8,4"/><text x="710.0" y="107.0" text-anchor="middle" fill="#1A7E65" font-size="10" font-weight="700" letter-spacing="1.0" opacity="0.85" font-family="'SF Pro Display', system-ui, -apple-system, BlinkMacSystemFont, 'Segoe UI', sans-serif">SECURITY</text>
<rect x="960.0" y="115.0" width="550.0" height="865.0" rx="14" fill="#EDF4FC" fill-opacity="0.45" stroke="#96B9E3" stroke-width="1.5" stroke-dasharray="8,4"/><text x="1235.0" y="107.0" text-anchor="middle" fill="#1A477E" font-size="10" font-weight="700" letter-spacing="1.0" opacity="0.85" font-family="'SF Pro Display', system-ui, -apple-system, BlinkMacSystemFont, 'Segoe UI', sans-serif">CORE</text>
<rect x="120.0" y="115.0" width="340.0" height="1245.0" rx="14" fill="#EDFCF4" fill-opacity="0.45" stroke="#96E3B9" stroke-width="1.5" stroke-dasharray="8,4"/><text x="290.0" y="107.0" text-anchor="middle" fill="#1A7E48" font-size="10" font-weight="700" letter-spacing="1.0" opacity="0.85" font-family="'SF Pro Display', system-ui, -apple-system, BlinkMacSystemFont, 'Segoe UI', sans-serif">CLIENT</text>
<rect x="120.0" y="115.0" width="340.0" height="675.0" rx="14" fill="#FCEDF8" fill-opacity="0.45" stroke="#E396D1" stroke-width="1.5" stroke-dasharray="8,4"/><text x="290.0" y="107.0" text-anchor="middle" fill="#7E1A67" font-size="10" font-weight="700" letter-spacing="1.0" opacity="0.85" font-family="'SF Pro Display', system-ui, -apple-system, BlinkMacSystemFont, 'Segoe UI', sans-serif">PLATFORM</text>
<rect x="1590.0" y="115.0" width="340.0" height="295.0" rx="14" fill="#FCF6ED" fill-opacity="0.45" stroke="#E3C396" stroke-width="1.5" stroke-dasharray="8,4"/><text x="1760.0" y="107.0" text-anchor="middle" fill="#7E551A" font-size="10" font-weight="700" letter-spacing="1.0" opacity="0.85" font-family="'SF Pro Display', system-ui, -apple-system, BlinkMacSystemFont, 'Segoe UI', sans-serif">MESSAGING</text>
<rect x="1380.0" y="115.0" width="130.0" height="295.0" rx="14" fill="#EEEDFC" fill-opacity="0.45" stroke="#9C96E3" stroke-width="1.5" stroke-dasharray="8,4"/><text x="1445.0" y="107.0" text-anchor="middle" fill="#231A7E" font-size="10" font-weight="700" letter-spacing="1.0" opacity="0.85" font-family="'SF Pro Display', system-ui, -apple-system, BlinkMacSystemFont, 'Segoe UI', sans-serif">DATA</text>
<rect x="1800.0" y="495.0" width="130.0" height="105.0" rx="14" fill="#F7EDFC" fill-opacity="0.45" stroke="#C896E3" stroke-width="1.5" stroke-dasharray="8,4"/><text x="1865.0" y="487.0" text-anchor="middle" fill="#5B1A7E" font-size="10" font-weight="700" letter-spacing="1.0" opacity="0.85" font-family="'SF Pro Display', system-ui, -apple-system, BlinkMacSystemFont, 'Segoe UI', sans-serif">INTELLIGENCE</text>
<path d="M185.0,1295.0 L296.0,1295.0 L296.0,535.0 L395.0,535.0" fill="none" stroke="#B8BFC8" stroke-width="1.6" stroke-linecap="round" stroke-linejoin="round"/><polygon points="395.0,535.0 386.71045105397405,538.5047650807778 386.71045105397405,531.4952349192222" fill="#B8BFC8"/>
<path d="M185.0,155.0 L302.0,155.0 L302.0,535.0 L395.0,535.0" fill="none" stroke="#B8BFC8" stroke-width="1.6" stroke-linecap="round" stroke-linejoin="round"/><polygon points="395.0,535.0 386.71045105397405,538.5047650807778 386.71045105397405,531.4952349192222" fill="#B8BFC8"/>
<path d="M395.0,535.0 L500.0,535.0 L500.0,155.0 L605.0,155.0" fill="none" stroke="#B8BFC8" stroke-width="1.6" stroke-linecap="round" stroke-linejoin="round"/><polygon points="605.0,155.0 596.710451053974,158.50476508077784 596.710451053974,151.49523491922216" fill="#B8BFC8"/>
<path d="M605.0,155.0 L815.0,155.0" fill="none" stroke="#B8BFC8" stroke-width="1.6" stroke-linecap="round" stroke-linejoin="round"/><polygon points="815.0,155.0 806.710451053974,158.50476508077784 806.710451053974,151.49523491922216" fill="#B8BFC8"/>
<path d="M815.0,155.0 L1025.0,155.0" fill="none" stroke="#B8BFC8" stroke-width="1.6" stroke-linecap="round" stroke-linejoin="round"/><polygon points="1025.0,155.0 1016.710451053974,158.50476508077784 1016.710451053974,151.49523491922216" fill="#B8BFC8"/>
<path d="M1025.0,155.0 L1235.0,155.0" fill="none" stroke="#B8BFC8" stroke-width="1.6" stroke-linecap="round" stroke-linejoin="round"/><polygon points="1235.0,155.0 1226.710451053974,158.50476508077784 1226.710451053974,151.49523491922216" fill="#B8BFC8"/>
<path d="M1025.0,155.0 L1121.0,155.0 L1121.0,345.0 L1235.0,345.0" fill="none" stroke="#B8BFC8" stroke-width="1.6" stroke-linecap="round" stroke-linejoin="round"/><polygon points="1235.0,345.0 1226.710451053974,348.5047650807779 1226.710451053974,341.4952349192221" fill="#B8BFC8"/>
<path d="M1025.0,155.0 L1127.0,155.0 L1127.0,535.0 L1235.0,535.0" fill="none" stroke="#B8BFC8" stroke-width="1.6" stroke-linecap="round" stroke-linejoin="round"/><polygon points="1235.0,535.0 1226.710451053974,538.5047650807778 1226.710451053974,531.4952349192222" fill="#B8BFC8"/>
<path d="M1025.0,155.0 L1133.0,155.0 L1133.0,725.0 L1235.0,725.0" fill="none" stroke="#B8BFC8" stroke-width="1.6" stroke-linecap="round" stroke-linejoin="round"/><polygon points="1235.0,725.0 1226.710451053974,728.5047650807778 1226.710451053974,721.4952349192222" fill="#B8BFC8"/>
<path d="M1025.0,155.0 L1139.0,155.0 L1139.0,915.0 L1235.0,915.0" fill="none" stroke="#B8BFC8" stroke-width="1.6" stroke-linecap="round" stroke-linejoin="round"/><polygon points="1235.0,915.0 1226.710451053974,918.5047650807778 1226.710451053974,911.4952349192222" fill="#B8BFC8"/>
<path d="M1235.0,915.0 L1346.0,915.0 L1346.0,535.0 L1445.0,535.0" fill="none" stroke="#B8BFC8" stroke-width="1.6" stroke-linecap="round" stroke-linejoin="round"/><polygon points="1445.0,535.0 1436.710451053974,538.5047650807778 1436.710451053974,531.4952349192222" fill="#B8BFC8"/>
<path d="M1445.0,535.0 L1547.0,535.0 L1547.0,155.0 L1655.0,155.0" fill="none" stroke="#B8BFC8" stroke-width="1.6" stroke-linecap="round" stroke-linejoin="round"/><polygon points="1655.0,155.0 1646.710451053974,158.50476508077784 1646.710451053974,151.49523491922216" fill="#B8BFC8"/>
<path d="M1445.0,535.0 L1553.0,535.0 L1553.0,345.0 L1655.0,345.0" fill="none" stroke="#B8BFC8" stroke-width="1.6" stroke-linecap="round" stroke-linejoin="round"/><polygon points="1655.0,345.0 1646.710451053974,348.5047650807779 1646.710451053974,341.4952349192221" fill="#B8BFC8"/>
<path d="M1655.0,345.0 L1757.0,345.0 L1757.0,155.0 L1865.0,155.0" fill="none" stroke="#B8BFC8" stroke-width="1.6" stroke-linecap="round" stroke-linejoin="round"/><polygon points="1865.0,155.0 1856.710451053974,158.50476508077784 1856.710451053974,151.49523491922216" fill="#B8BFC8"/>
<path d="M1655.0,345.0 L1865.0,345.0" fill="none" stroke="#B8BFC8" stroke-width="1.6" stroke-linecap="round" stroke-linejoin="round"/><polygon points="1865.0,345.0 1856.710451053974,348.5047650807779 1856.710451053974,341.4952349192221" fill="#B8BFC8"/>
<path d="M1655.0,345.0 L1763.0,345.0 L1763.0,535.0 L1865.0,535.0" fill="none" stroke="#B8BFC8" stroke-width="1.6" stroke-linecap="round" stroke-linejoin="round"/><polygon points="1865.0,535.0 1856.710451053974,538.5047650807778 1856.710451053974,531.4952349192222" fill="#B8BFC8"/>
<path d="M1235.0,535.0 L1334.0,535.0 L1334.0,155.0 L1445.0,155.0" fill="none" stroke="#B8BFC8" stroke-width="1.6" stroke-linecap="round" stroke-linejoin="round"/><polygon points="1445.0,155.0 1436.710451053974,158.50476508077784 1436.710451053974,151.49523491922216" fill="#B8BFC8"/>
<path d="M1235.0,535.0 L1340.0,535.0 L1340.0,345.0 L1445.0,345.0" fill="none" stroke="#B8BFC8" stroke-width="1.6" stroke-linecap="round" stroke-linejoin="round"/><polygon points="1445.0,345.0 1436.710451053974,348.5047650807779 1436.710451053974,341.4952349192221" fill="#B8BFC8"/>
<path d="M185.0,1105.0 L605.0,1105.0 L605.0,155.0 L1025.0,155.0" fill="none" stroke="#B8BFC8" stroke-width="1.6" stroke-linecap="round" stroke-linejoin="round"/><polygon points="1025.0,155.0 1016.710451053974,158.50476508077784 1016.710451053974,151.49523491922216" fill="#B8BFC8"/>
<path d="M185.0,915.0 L284.0,915.0 L284.0,345.0 L395.0,345.0" fill="none" stroke="#B8BFC8" stroke-width="1.6" stroke-linecap="round" stroke-linejoin="round"/><polygon points="395.0,345.0 386.71045105397405,348.5047650807779 386.71045105397405,341.4952349192221" fill="#B8BFC8"/>
<path d="M185.0,535.0 L290.0,535.0 L290.0,345.0 L395.0,345.0" fill="none" stroke="#B8BFC8" stroke-width="1.6" stroke-linecap="round" stroke-linejoin="round"/><polygon points="395.0,345.0 386.71045105397405,348.5047650807779 386.71045105397405,341.4952349192221" fill="#B8BFC8"/>
<path d="M395.0,345.0 L710.0,345.0 L710.0,155.0 L1025.0,155.0" fill="none" stroke="#B8BFC8" stroke-width="1.6" stroke-linecap="round" stroke-linejoin="round"/><polygon points="1025.0,155.0 1016.710451053974,158.50476508077784 1016.710451053974,151.49523491922216" fill="#B8BFC8"/>
<path d="M185.0,725.0 L278.0,725.0 L278.0,155.0 L395.0,155.0" fill="none" stroke="#B8BFC8" stroke-width="1.6" stroke-linecap="round" stroke-linejoin="round"/><polygon points="395.0,155.0 386.71045105397405,158.50476508077784 386.71045105397405,151.49523491922216" fill="#B8BFC8"/>
<svg x="151.0" y="124.71875" width="68.0" height="60.5625" viewBox="0.0 0.0 256.0 228.0"><path fill="#00D8FF" d="M210.483 73.824a172 172 0 0 0-8.24-2.597c.465-1.9.893-3.777 1.273-5.621c6.238-30.281 2.16-54.676-11.769-62.708c-13.355-7.7-35.196.329-57.254 19.526a171 171 0 0 0-6.375 5.848a156 156 0 0 0-4.241-3.917C100.759 3.829 77.587-4.822 63.673 3.233C50.33 10.957 46.379 33.89 51.995 62.588a171 171 0 0 0 1.892 8.48c-3.28.932-6.445 1.924-9.474 2.98C17.309 83.498 0 98.307 0 113.668c0 15.865 18.582 31.778 46.812 41.427a146 146 0 0 0 6.921 2.165a168 168 0 0 0-2.01 9.138c-5.354 28.2-1.173 50.591 12.134 58.266c13.744 7.926 36.812-.22 59.273-19.855a146 146 0 0 0 5.342-4.923a168 168 0 0 0 6.92 6.314c21.758 18.722 43.246 26.282 56.54 18.586c13.731-7.949 18.194-32.003 12.4-61.268a145 145 0 0 0-1.535-6.842c1.62-.48 3.21-.974 4.76-1.488c29.348-9.723 48.443-25.443 48.443-41.52c0-15.417-17.868-30.326-45.517-39.844m-6.365 70.984q-2.102.694-4.3 1.345c-3.24-10.257-7.612-21.163-12.963-32.432c5.106-11 9.31-21.767 12.459-31.957c2.619.758 5.16 1.557 7.61 2.4c23.69 8.156 38.14 20.213 38.14 29.504c0 9.896-15.606 22.743-40.946 31.14m-10.514 20.834c2.562 12.94 2.927 24.64 1.23 33.787c-1.524 8.219-4.59 13.698-8.382 15.893c-8.067 4.67-25.32-1.4-43.927-17.412a157 157 0 0 1-6.437-5.87c7.214-7.889 14.423-17.06 21.459-27.246c12.376-1.098 24.068-2.894 34.671-5.345q.785 3.162 1.386 6.193M87.276 214.515c-7.882 2.783-14.16 2.863-17.955.675c-8.075-4.657-11.432-22.636-6.853-46.752a157 157 0 0 1 1.869-8.499c10.486 2.32 22.093 3.988 34.498 4.994c7.084 9.967 14.501 19.128 21.976 27.15a135 135 0 0 1-4.877 4.492c-9.933 8.682-19.886 14.842-28.658 17.94M50.35 144.747c-12.483-4.267-22.792-9.812-29.858-15.863c-6.35-5.437-9.555-10.836-9.555-15.216c0-9.322 13.897-21.212 37.076-29.293c2.813-.98 5.757-1.905 8.812-2.773c3.204 10.42 7.406 21.315 12.477 32.332c-5.137 11.18-9.399 22.249-12.634 32.792a135 135 0 0 1-6.318-1.979m12.378-84.26c-4.811-24.587-1.616-43.134 6.425-47.789c8.564-4.958 27.502 2.111 47.463 19.835a144 144 0 0 1 3.841 3.545c-7.438 7.987-14.787 17.08-21.808 26.988c-12.04 1.116-23.565 2.908-34.161 5.309a160 160 0 0 1-1.76-7.887m110.427 27.268a348 348 0 0 0-7.785-12.803c8.168 1.033 15.994 2.404 23.343 4.08c-2.206 7.072-4.956 14.465-8.193 22.045a381 381 0 0 0-7.365-13.322m-45.032-43.861c5.044 5.465 10.096 11.566 15.065 18.186a322 322 0 0 0-30.257-.006c4.974-6.559 10.069-12.652 15.192-18.18M82.802 87.83a323 323 0 0 0-7.227 13.238c-3.184-7.553-5.909-14.98-8.134-22.152c7.304-1.634 15.093-2.97 23.209-3.984a322 322 0 0 0-7.848 12.897m8.081 65.352c-8.385-.936-16.291-2.203-23.593-3.793c2.26-7.3 5.045-14.885 8.298-22.6a321 321 0 0 0 7.257 13.246c2.594 4.48 5.28 8.868 8.038 13.147m37.542 31.03c-5.184-5.592-10.354-11.779-15.403-18.433c4.902.192 9.899.29 14.978.29c5.218 0 10.376-.117 15.453-.343c-4.985 6.774-10.018 12.97-15.028 18.486m52.198-57.817c3.422 7.8 6.306 15.345 8.596 22.52c-7.422 1.694-15.436 3.058-23.88 4.071a382 382 0 0 0 7.859-13.026a347 347 0 0 0 7.425-13.565m-16.898 8.101a359 359 0 0 1-12.281 19.815a329 329 0 0 1-23.444.823c-7.967 0-15.716-.248-23.178-.732a310 310 0 0 1-12.513-19.846h.001a307 307 0 0 1-10.923-20.627a310 310 0 0 1 10.89-20.637l-.001.001a307 307 0 0 1 12.413-19.761c7.613-.576 15.42-.876 23.31-.876H128c7.926 0 15.743.303 23.354.883a329 329 0 0 1 12.335 19.695a359 359 0 0 1 11.036 20.54a330 330 0 0 1-11 20.722m22.56-122.124c8.572 4.944 11.906 24.881 6.52 51.026q-.518 2.504-1.15 5.09c-10.622-2.452-22.155-4.275-34.23-5.408c-7.034-10.017-14.323-19.124-21.64-27.008a161 161 0 0 1 5.888-5.4c18.9-16.447 36.564-22.941 44.612-18.3M128 90.808c12.625 0 22.86 10.235 22.86 22.86s-10.235 22.86-22.86 22.86s-22.86-10.235-22.86-22.86s10.235-22.86 22.86-22.86"/></svg><text x="185.0" y="207.0" text-anchor="middle" fill="#1F2937" font-size="13" font-weight="600" letter-spacing="0.2" font-family="'SF Pro Display', system-ui, -apple-system, BlinkMacSystemFont, 'Segoe UI', sans-serif">React Frontend</text>
<svg x="155.0893470790378" y="311.0" width="59.8213058419244" height="68.0" viewBox="0.0 0.0 256.0 291.0"><path fill="#009639" d="M2.054 218.187c1.32 2.347 3.227 4.108 5.575 5.428l112.962 65.137c4.695 2.787 10.416 2.787 14.964 0l112.963-65.137c4.695-2.64 7.482-7.629 7.482-13.057V80.284c0-5.428-2.787-10.416-7.482-13.056L135.555 2.09c-4.694-2.788-10.416-2.788-14.964 0L7.63 67.228C2.787 69.868 0 74.856 0 80.284v130.42c0 2.642.587 5.136 2.054 7.483"/><path fill="#FFF" d="M91.837 195.154a14.463 14.463 0 0 1-14.524 14.524a14.463 14.463 0 0 1-14.523-14.524V95.542c0-7.776 6.895-14.084 16.43-14.084c6.896 0 14.965 2.787 19.806 8.802l4.4 5.282l60.737 72.618V95.835a14.463 14.463 0 0 1 14.524-14.524a14.463 14.463 0 0 1 14.523 14.524v99.613c0 7.775-6.895 14.083-16.43 14.083c-6.896 0-14.965-2.787-19.806-8.802l-65.137-77.754z"/></svg><text x="185.0" y="397.0" text-anchor="middle" fill="#1F2937" font-size="13" font-weight="600" letter-spacing="0.2" font-family="'SF Pro Display', system-ui, -apple-system, BlinkMacSystemFont, 'Segoe UI', sans-serif">Nginx Proxy</text>
<g transform="translate(991.0,121.0)"><path d="M17.0,54.4 L17.0,23.8 Q17.0,13.600000000000001 34.0,13.600000000000001 Q51.0,13.600000000000001 51.0,23.8 L51.0,54.4" fill="none" stroke="#8B5CF6" stroke-width="3.5" stroke-linecap="round"/><line x1="12.0" y1="54.4" x2="56.0" y2="54.4" stroke="#8B5CF6" stroke-width="3" stroke-linecap="round"/><line x1="24.0" y1="38.0" x2="40.0" y2="38.0" stroke="#C4B5FD" stroke-width="2.5"/><polygon points="42.0,38.0 37.0,35.0 37.0,41.0" fill="#C4B5FD"/></g><text x="1025.0" y="207.0" text-anchor="middle" fill="#1F2937" font-size="13" font-weight="600" letter-spacing="0.2" font-family="'SF Pro Display', system-ui, -apple-system, BlinkMacSystemFont, 'Segoe UI', sans-serif">API Gateway</text>
<g transform="translate(1201.0,121.0)"><path d="M34.0,6.799999999999997 L54.4,17.68 L54.4,36.72 Q54.4,53.04 34.0,61.2 Q13.600000000000001,53.04 13.600000000000001,36.72 L13.600000000000001,17.68 Z" fill="#10B981" stroke="#059669" stroke-width="1.5"/><polyline points="27.0,35.0 32.0,41.0 43.0,29.0" fill="none" stroke="white" stroke-width="3" stroke-linecap="round" stroke-linejoin="round"/></g><text x="1235.0" y="207.0" text-anchor="middle" fill="#1F2937" font-size="13" font-weight="600" letter-spacing="0.2" font-family="'SF Pro Display', system-ui, -apple-system, BlinkMacSystemFont, 'Segoe UI', sans-serif">Auth Service</text>
<g transform="translate(1201.0,311.0)"><circle cx="34.0" cy="23.8" r="11.56" fill="#7C3AED"/><path d="M13.600000000000001,57.8 Q13.600000000000001,37.4 34.0,37.4 Q54.4,37.4 54.4,57.8" fill="#7C3AED"/></g><text x="1235.0" y="397.0" text-anchor="middle" fill="#1F2937" font-size="13" font-weight="600" letter-spacing="0.2" font-family="'SF Pro Display', system-ui, -apple-system, BlinkMacSystemFont, 'Segoe UI', sans-serif">User Service</text>
<g transform="translate(1201.0,501.0)"><rect x="14.96" y="17.68" width="17.68" height="14.96" rx="4" fill="#0EA5E9" stroke="#0284C7" stroke-width="1"/><line x1="18.96" y1="26.64" x2="28.64" y2="26.64" stroke="white" stroke-width="1.5" opacity="0.6"/><circle cx="23.8" cy="22.916" r="3" fill="white" opacity="0.5"/><rect x="35.36" y="17.68" width="17.68" height="14.96" rx="4" fill="#38BDF8" stroke="#0EA5E9" stroke-width="1"/><line x1="39.36" y1="26.64" x2="49.04" y2="26.64" stroke="white" stroke-width="1.5" opacity="0.6"/><circle cx="44.2" cy="22.916" r="3" fill="white" opacity="0.5"/><rect x="14.96" y="35.36" width="17.68" height="14.96" rx="4" fill="#7DD3FC" stroke="#38BDF8" stroke-width="1"/><line x1="18.96" y1="44.32" x2="28.64" y2="44.32" stroke="white" stroke-width="1.5" opacity="0.6"/><circle cx="23.8" cy="40.596" r="3" fill="white" opacity="0.5"/><rect x="35.36" y="35.36" width="17.68" height="14.96" rx="4" fill="#BAE6FD" stroke="#7DD3FC" stroke-width="1"/><line x1="39.36" y1="44.32" x2="49.04" y2="44.32" stroke="white" stroke-width="1.5" opacity="0.6"/><circle cx="44.2" cy="40.596" r="3" fill="white" opacity="0.5"/></g><text x="1235.0" y="587.0" text-anchor="middle" fill="#1F2937" font-size="13" font-weight="600" letter-spacing="0.2" font-family="'SF Pro Display', system-ui, -apple-system, BlinkMacSystemFont, 'Segoe UI', sans-serif">Product Catalog</text>
<g transform="translate(1201.0,691.0)"><circle cx="30.0" cy="30.0" r="14.96" fill="#DBEAFE"/><circle cx="30.0" cy="30.0" r="14.96" fill="none" stroke="#3B82F6" stroke-width="3"/><line x1="39.724000000000004" y1="39.724000000000004" x2="53.040000000000006" y2="53.040000000000006" stroke="#2563EB" stroke-width="4" stroke-linecap="round"/><path d="M24.764,22.52 Q30.0,18.78 35.236,22.52" fill="none" stroke="white" stroke-width="2" stroke-linecap="round" opacity="0.7"/></g><text x="1235.0" y="777.0" text-anchor="middle" fill="#1F2937" font-size="13" font-weight="600" letter-spacing="0.2" font-family="'SF Pro Display', system-ui, -apple-system, BlinkMacSystemFont, 'Segoe UI', sans-serif">Search Engine</text>
<g transform="translate(1201.0,881.0)"><path d="M12.239999999999998,21.759999999999998 L19.04,42.16 L48.96,42.16 L53.040000000000006,21.759999999999998" fill="#F59E0B" stroke="#D97706" stroke-width="1.5" stroke-linejoin="round"/><path d="M12.239999999999998,21.759999999999998 L8.16,14.959999999999997" stroke="#D97706" stroke-width="2.5" stroke-linecap="round"/><circle cx="24.479999999999997" cy="47.6" r="3.4000000000000004" fill="#D97706"/><circle cx="43.52" cy="47.6" r="3.4000000000000004" fill="#D97706"/><circle cx="24.479999999999997" cy="47.6" r="1.7000000000000002" fill="#FBBF24"/><circle cx="43.52" cy="47.6" r="1.7000000000000002" fill="#FBBF24"/><circle cx="34.0" cy="32.64" r="4.08" fill="white" opacity="0.8"/></g><text x="1235.0" y="967.0" text-anchor="middle" fill="#1F2937" font-size="13" font-weight="600" letter-spacing="0.2" font-family="'SF Pro Display', system-ui, -apple-system, BlinkMacSystemFont, 'Segoe UI', sans-serif">Shopping Cart</text>
<g transform="translate(1411.0,501.0)"><rect x="15.299999999999997" y="26.86" width="37.400000000000006" height="22.2768" rx="3" fill="#8B5CF6"/><rect x="13.299999999999997" y="21.148" width="41.400000000000006" height="7.14" rx="3" fill="#A78BFA"/><rect x="31.5" y="26.86" width="5" height="22.2768" fill="#C4B5FD" opacity="0.5"/><polyline points="28.0,38.0 33.0,43.0 42.0,33.0" fill="none" stroke="white" stroke-width="2.5" stroke-linecap="round" stroke-linejoin="round"/></g><text x="1445.0" y="587.0" text-anchor="middle" fill="#1F2937" font-size="13" font-weight="600" letter-spacing="0.2" font-family="'SF Pro Display', system-ui, -apple-system, BlinkMacSystemFont, 'Segoe UI', sans-serif">Order Service</text>
<g transform="translate(1621.0,121.0)"><rect x="10.200000000000003" y="19.04" width="47.599999999999994" height="29.92" rx="6" fill="#10B981" stroke="#059669" stroke-width="1.5"/><rect x="10.200000000000003" y="27.04" width="47.599999999999994" height="5" fill="#059669"/><rect x="16.200000000000003" y="35.0" width="10" height="8" rx="2" fill="#FBBF24"/><line x1="18.200000000000003" y1="35.0" x2="18.200000000000003" y2="43.0" stroke="#D97706" stroke-width="0.7"/><line x1="16.200000000000003" y1="39.0" x2="26.200000000000003" y2="39.0" stroke="#D97706" stroke-width="0.7"/><circle cx="40.0" cy="39.0" r="1.5" fill="white" opacity="0.6"/><circle cx="45.0" cy="39.0" r="1.5" fill="white" opacity="0.6"/><circle cx="50.0" cy="39.0" r="1.5" fill="white" opacity="0.6"/><circle cx="55.0" cy="39.0" r="1.5" fill="white" opacity="0.6"/></g><text x="1655.0" y="207.0" text-anchor="middle" fill="#1F2937" font-size="13" font-weight="600" letter-spacing="0.2" font-family="'SF Pro Display', system-ui, -apple-system, BlinkMacSystemFont, 'Segoe UI', sans-serif">Payment Service</text>
<g transform="translate(1831.0,121.0)"><rect x="11.899999999999999" y="19.04" width="44.2" height="29.92" rx="4" fill="#0EA5E9"/><path d="M11.899999999999999,19.04 L34.0,37.0 L56.1,19.04" fill="#38BDF8" stroke="#0284C7" stroke-width="1.5" stroke-linejoin="round"/><line x1="11.899999999999999" y1="48.96" x2="29.0" y2="34.0" stroke="#0284C7" stroke-width="1" opacity="0.3"/><line x1="56.1" y1="48.96" x2="39.0" y2="34.0" stroke="#0284C7" stroke-width="1" opacity="0.3"/></g><text x="1865.0" y="207.0" text-anchor="middle" fill="#1F2937" font-size="13" font-weight="600" letter-spacing="0.2" font-family="'SF Pro Display', system-ui, -apple-system, BlinkMacSystemFont, 'Segoe UI', sans-serif">Email Service</text>
<g transform="translate(1831.0,311.0)"><path d="M34.0,14.959999999999997 Q13.04,30.6 19.04,39.44 L16.04,43.52 L51.96,43.52 L48.96,39.44 Q54.96,30.6 34.0,14.959999999999997Z" fill="#F59E0B" stroke="#D97706" stroke-width="1.5"/><circle cx="34.0" cy="47.6" r="3.06" fill="#D97706"/><circle cx="34.0" cy="13.600000000000001" r="2.3800000000000003" fill="#D97706"/><circle cx="50.96" cy="23.119999999999997" r="4.42" fill="#EF4444" stroke="white" stroke-width="1.5"/></g><text x="1865.0" y="397.0" text-anchor="middle" fill="#1F2937" font-size="13" font-weight="600" letter-spacing="0.2" font-family="'SF Pro Display', system-ui, -apple-system, BlinkMacSystemFont, 'Segoe UI', sans-serif">Notification Hub</text>
<g transform="translate(1411.0,311.0)"><polygon points="34.0,9.600000000000001 57.8,19.8 34.0,30.0 10.200000000000003,19.8" fill="#DC2626" stroke="#B91C1C" stroke-width="1"/><polygon points="34.0,23.8 57.8,34.0 34.0,44.2 10.200000000000003,34.0" fill="#EF4444" stroke="#B91C1C" stroke-width="1"/><polygon points="34.0,38.0 57.8,48.2 34.0,58.400000000000006 10.200000000000003,48.2" fill="#F87171" stroke="#B91C1C" stroke-width="1"/></g><text x="1445.0" y="397.0" text-anchor="middle" fill="#1F2937" font-size="13" font-weight="600" letter-spacing="0.2" font-family="'SF Pro Display', system-ui, -apple-system, BlinkMacSystemFont, 'Segoe UI', sans-serif">Redis Cache</text>
<g transform="translate(1621.0,311.0)"><circle cx="34.0" cy="34.0" r="25.84" fill="#231F20"/><text x="34.0" y="42.0" text-anchor="middle" fill="white" font-size="22" font-weight="900" font-family="system-ui">K</text></g><text x="1655.0" y="397.0" text-anchor="middle" fill="#1F2937" font-size="13" font-weight="600" letter-spacing="0.2" font-family="'SF Pro Display', system-ui, -apple-system, BlinkMacSystemFont, 'Segoe UI', sans-serif">Kafka Event Bus</text>
<svg x="1412.030303030303" y="121.0" width="65.93939393939394" height="68.0" viewBox="0.0 0.0 256.0 264.0"><path d="M255.008 158.086c-1.535-4.649-5.556-7.887-10.756-8.664c-2.452-.366-5.26-.21-8.583.475c-5.792 1.195-10.089 1.65-13.225 1.738c11.837-19.985 21.462-42.775 27.003-64.228c8.96-34.689 4.172-50.492-1.423-57.64C233.217 10.847 211.614.683 185.552.372c-13.903-.17-26.108 2.575-32.475 4.549c-5.928-1.046-12.302-1.63-18.99-1.738c-12.537-.2-23.614 2.533-33.079 8.15c-5.24-1.772-13.65-4.27-23.362-5.864c-22.842-3.75-41.252-.828-54.718 8.685C6.622 25.672-.937 45.684.461 73.634c.444 8.874 5.408 35.874 13.224 61.48c4.492 14.718 9.282 26.94 14.237 36.33c7.027 13.315 14.546 21.156 22.987 23.972c4.731 1.576 13.327 2.68 22.368-4.85c1.146 1.388 2.675 2.767 4.704 4.048c2.577 1.625 5.728 2.953 8.875 3.74c11.341 2.835 21.964 2.126 31.027-1.848c.056 1.612.099 3.152.135 4.482c.06 2.157.12 4.272.199 6.25c.537 13.374 1.447 23.773 4.143 31.049c.148.4.347 1.01.557 1.657c1.345 4.118 3.594 11.012 9.316 16.411c5.925 5.593 13.092 7.308 19.656 7.308c3.292 0 6.433-.432 9.188-1.022c9.82-2.105 20.973-5.311 29.041-16.799c7.628-10.86 11.336-27.217 12.007-52.99q.13-1.094.244-2.088l.16-1.362l1.797.158l.463.031c10.002.456 22.232-1.665 29.743-5.154c5.935-2.754 24.954-12.795 20.476-26.351"/><path fill="#336791" d="M237.906 160.722c-29.74 6.135-31.785-3.934-31.785-3.934c31.4-46.593 44.527-105.736 33.2-120.211c-30.904-39.485-84.399-20.811-85.292-20.327l-.287.052c-5.876-1.22-12.451-1.946-19.842-2.067c-13.456-.22-23.664 3.528-31.41 9.402c0 0-95.43-39.314-90.991 49.444c.944 18.882 27.064 142.873 58.218 105.422c11.387-13.695 22.39-25.274 22.39-25.274c5.464 3.63 12.006 5.482 18.864 4.817l.533-.452c-.166 1.7-.09 3.363.213 5.332c-8.026 8.967-5.667 10.541-21.711 13.844c-16.235 3.346-6.698 9.302-.471 10.86c7.549 1.887 25.013 4.561 36.813-11.958l-.47 1.885c3.144 2.519 5.352 16.383 4.982 28.952c-.37 12.568-.617 21.197 1.86 27.937c2.479 6.74 4.948 21.905 26.04 17.386c17.623-3.777 26.756-13.564 28.027-29.89c.901-11.606 2.942-9.89 3.07-20.267l1.637-4.912c1.887-15.733.3-20.809 11.157-18.448l2.64.232c7.99.363 18.45-1.286 24.589-4.139c13.218-6.134 21.058-16.377 8.024-13.686z"/><path fill="#FFF" d="M108.076 81.525c-2.68-.373-5.107-.028-6.335.902c-.69.523-.904 1.129-.962 1.546c-.154 1.105.62 2.327 1.096 2.957c1.346 1.784 3.312 3.01 5.258 3.28q.423.059.842.058c3.245 0 6.196-2.527 6.456-4.392c.325-2.336-3.066-3.893-6.355-4.35m88.784.073c-.256-1.831-3.514-2.353-6.606-1.923c-3.088.43-6.082 1.824-5.832 3.659c.2 1.427 2.777 3.863 5.827 3.863q.387 0 .78-.054c2.036-.282 3.53-1.575 4.24-2.32c1.08-1.136 1.706-2.402 1.591-3.225"/><path fill="#FFF" d="M247.802 160.025c-1.134-3.429-4.784-4.532-10.848-3.28c-18.005 3.716-24.453 1.142-26.57-.417c13.995-21.32 25.508-47.092 31.719-71.137c2.942-11.39 4.567-21.968 4.7-30.59c.147-9.463-1.465-16.417-4.789-20.665c-13.402-17.125-33.072-26.311-56.882-26.563c-16.369-.184-30.199 4.005-32.88 5.183c-5.646-1.404-11.801-2.266-18.502-2.376c-12.288-.199-22.91 2.743-31.704 8.74c-3.82-1.422-13.692-4.811-25.765-6.756c-20.872-3.36-37.458-.814-49.294 7.571c-14.123 10.006-20.643 27.892-19.38 53.16c.425 8.501 5.269 34.653 12.913 59.698c10.062 32.964 21 51.625 32.508 55.464c1.347.449 2.9.763 4.613.763c4.198 0 9.345-1.892 14.7-8.33a530 530 0 0 1 20.261-22.926c4.524 2.428 9.494 3.784 14.577 3.92q.016.2.035.398a118 118 0 0 0-2.57 3.175c-3.522 4.471-4.255 5.402-15.592 7.736c-3.225.666-11.79 2.431-11.916 8.435c-.136 6.56 10.125 9.315 11.294 9.607c4.074 1.02 7.999 1.523 11.742 1.523c9.103 0 17.114-2.992 23.516-8.781c-.197 23.386.778 46.43 3.586 53.451c2.3 5.748 7.918 19.795 25.664 19.794c2.604 0 5.47-.303 8.623-.979c18.521-3.97 26.564-12.156 29.675-30.203c1.665-9.645 4.522-32.676 5.866-45.03c2.836.885 6.487 1.29 10.434 1.289c8.232 0 17.731-1.749 23.688-4.514c6.692-3.108 18.768-10.734 16.578-17.36m-44.106-83.48c-.061 3.647-.563 6.958-1.095 10.414c-.573 3.717-1.165 7.56-1.314 12.225c-.147 4.54.42 9.26.968 13.825c1.108 9.22 2.245 18.712-2.156 28.078a37 37 0 0 1-1.95-4.009c-.547-1.326-1.735-3.456-3.38-6.404c-6.399-11.476-21.384-38.35-13.713-49.316c2.285-3.264 8.084-6.62 22.64-4.813m-17.644-61.787c21.334.471 38.21 8.452 50.158 23.72c9.164 11.711-.927 64.998-30.14 110.969a171 171 0 0 0-.886-1.117l-.37-.462c7.549-12.467 6.073-24.802 4.759-35.738c-.54-4.488-1.05-8.727-.92-12.709c.134-4.22.692-7.84 1.232-11.34c.663-4.313 1.338-8.776 1.152-14.037c.139-.552.195-1.204.122-1.978c-.475-5.045-6.235-20.144-17.975-33.81c-6.422-7.475-15.787-15.84-28.574-21.482c5.5-1.14 13.021-2.203 21.442-2.016M66.674 175.778c-5.9 7.094-9.974 5.734-11.314 5.288c-8.73-2.912-18.86-21.364-27.791-50.624c-7.728-25.318-12.244-50.777-12.602-57.916c-1.128-22.578 4.345-38.313 16.268-46.769c19.404-13.76 51.306-5.524 64.125-1.347c-.184.182-.376.352-.558.537c-21.036 21.244-20.537 57.54-20.485 59.759c-.002.856.07 2.068.168 3.735c.362 6.105 1.036 17.467-.764 30.334c-1.672 11.957 2.014 23.66 10.111 32.109a36 36 0 0 0 2.617 2.468c-3.604 3.86-11.437 12.396-19.775 22.426m22.479-29.993c-6.526-6.81-9.49-16.282-8.133-25.99c1.9-13.592 1.199-25.43.822-31.79c-.053-.89-.1-1.67-.127-2.285c3.073-2.725 17.314-10.355 27.47-8.028c4.634 1.061 7.458 4.217 8.632 9.645c6.076 28.103.804 39.816-3.432 49.229c-.873 1.939-1.698 3.772-2.402 5.668l-.546 1.466c-1.382 3.706-2.668 7.152-3.465 10.424c-6.938-.02-13.687-2.984-18.819-8.34m1.065 37.9c-2.026-.506-3.848-1.385-4.917-2.114c.893-.42 2.482-.992 5.238-1.56c13.337-2.745 15.397-4.683 19.895-10.394c1.031-1.31 2.2-2.794 3.819-4.602l.002-.002c2.411-2.7 3.514-2.242 5.514-1.412c1.621.67 3.2 2.702 3.84 4.938c.303 1.056.643 3.06-.47 4.62c-9.396 13.156-23.088 12.987-32.921 10.526m69.799 64.952c-16.316 3.496-22.093-4.829-25.9-14.346c-2.457-6.144-3.665-33.85-2.808-64.447c.011-.407-.047-.8-.159-1.17a15.4 15.4 0 0 0-.456-2.162c-1.274-4.452-4.379-8.176-8.104-9.72c-1.48-.613-4.196-1.738-7.46-.903c.696-2.868 1.903-6.107 3.212-9.614l.549-1.475c.618-1.663 1.394-3.386 2.214-5.21c4.433-9.848 10.504-23.337 3.915-53.81c-2.468-11.414-10.71-16.988-23.204-15.693c-7.49.775-14.343 3.797-17.761 5.53c-.735.372-1.407.732-2.035 1.082c.954-11.5 4.558-32.992 18.04-46.59c8.489-8.56 19.794-12.788 33.568-12.56c27.14.444 44.544 14.372 54.366 25.979c8.464 10.001 13.047 20.076 14.876 25.51c-13.755-1.399-23.11 1.316-27.852 8.096c-10.317 14.748 5.644 43.372 13.315 57.129c1.407 2.521 2.621 4.7 3.003 5.626c2.498 6.054 5.732 10.096 8.093 13.046c.724.904 1.426 1.781 1.96 2.547c-4.166 1.201-11.649 3.976-10.967 17.847c-.55 6.96-4.461 39.546-6.448 51.059c-2.623 15.21-8.22 20.875-23.957 24.25m68.104-77.936c-4.26 1.977-11.389 3.46-18.161 3.779c-7.48.35-11.288-.838-12.184-1.569c-.42-8.644 2.797-9.547 6.202-10.503c.535-.15 1.057-.297 1.561-.473q.469.383 1.032.756c6.012 3.968 16.735 4.396 31.874 1.271l.166-.033c-2.042 1.909-5.536 4.471-10.49 6.772"/></svg><text x="1445.0" y="207.0" text-anchor="middle" fill="#1F2937" font-size="13" font-weight="600" letter-spacing="0.2" font-family="'SF Pro Display', system-ui, -apple-system, BlinkMacSystemFont, 'Segoe UI', sans-serif">PostgreSQL DB</text>
<g transform="translate(151.0,501.0)"><path d="M17.0,43.0 Q13.0,47.0 17.0,53.0 Q34.0,61.0 56.0,49.0 Q56.0,43.0 52.0,41.0" fill="#2496ED" opacity="0.3"/><rect x="21.0" y="32.0" width="7" height="5" rx="1" fill="#2496ED" stroke="#1D7DC4" stroke-width="0.5"/><rect x="29.5" y="32.0" width="7" height="5" rx="1" fill="#2496ED" stroke="#1D7DC4" stroke-width="0.5"/><rect x="38.0" y="32.0" width="7" height="5" rx="1" fill="#2496ED" stroke="#1D7DC4" stroke-width="0.5"/><rect x="29.5" y="25.5" width="7" height="5" rx="1" fill="#2496ED" stroke="#1D7DC4" stroke-width="0.5"/><rect x="38.0" y="25.5" width="7" height="5" rx="1" fill="#2496ED" stroke="#1D7DC4" stroke-width="0.5"/><rect x="46.5" y="25.5" width="7" height="5" rx="1" fill="#2496ED" stroke="#1D7DC4" stroke-width="0.5"/><rect x="38.0" y="19.0" width="7" height="5" rx="1" fill="#2496ED" stroke="#1D7DC4" stroke-width="0.5"/><rect x="46.5" y="19.0" width="7" height="5" rx="1" fill="#2496ED" stroke="#1D7DC4" stroke-width="0.5"/><rect x="55.0" y="19.0" width="7" height="5" rx="1" fill="#2496ED" stroke="#1D7DC4" stroke-width="0.5"/></g><text x="185.0" y="587.0" text-anchor="middle" fill="#1F2937" font-size="13" font-weight="600" letter-spacing="0.2" font-family="'SF Pro Display', system-ui, -apple-system, BlinkMacSystemFont, 'Segoe UI', sans-serif">Docker Registry</text>
<g transform="translate(361.0,311.0)"><path d="M34.0,6.799999999999997 L57.55589098293673,20.4 L57.55589098293673,47.6 L34.0,61.2 L10.444109017063266,47.6 L10.444109017063269,20.399999999999995Z" fill="#326CE5" stroke="#2457B5" stroke-width="1.5"/><line x1="34.0" y1="34.0" x2="34.0" y2="19.04" stroke="white" stroke-width="2" opacity="0.8"/><line x1="34.0" y1="34.0" x2="46.955740040615204" y2="26.52" stroke="white" stroke-width="2" opacity="0.8"/><line x1="34.0" y1="34.0" x2="46.955740040615204" y2="41.480000000000004" stroke="white" stroke-width="2" opacity="0.8"/><line x1="34.0" y1="34.0" x2="34.0" y2="48.96" stroke="white" stroke-width="2" opacity="0.8"/><line x1="34.0" y1="34.0" x2="21.044259959384796" y2="41.480000000000004" stroke="white" stroke-width="2" opacity="0.8"/><line x1="34.0" y1="34.0" x2="21.044259959384796" y2="26.519999999999996" stroke="white" stroke-width="2" opacity="0.8"/><circle cx="34.0" cy="34.0" r="4" fill="white"/></g><text x="395.0" y="397.0" text-anchor="middle" fill="#1F2937" font-size="13" font-weight="600" letter-spacing="0.2" font-family="'SF Pro Display', system-ui, -apple-system, BlinkMacSystemFont, 'Segoe UI', sans-serif">Kubernetes Cluster</text>
<svg x="151.13229571984436" y="691.0" width="67.73540856031128" height="68.0" viewBox="0.0 0.0 256.0 257.0"><path fill="#DA4E31" d="M128.001.667C57.311.667 0 57.971 0 128.664c0 70.69 57.311 127.998 128.001 127.998S256 199.354 256 128.664C256 57.97 198.689.667 128.001.667m0 239.56c-20.112 0-36.419-13.435-36.419-30.004h72.838c0 16.566-16.306 30.004-36.419 30.004m60.153-39.94H67.842V178.47h120.314v21.816zm-.432-33.045H68.185c-.398-.458-.804-.91-1.188-1.375c-12.315-14.954-15.216-22.76-18.032-30.716c-.048-.262 14.933 3.06 25.556 5.45c0 0 5.466 1.265 13.458 2.722c-7.673-8.994-12.23-20.428-12.23-32.116c0-25.658 19.68-48.079 12.58-66.201c6.91.562 14.3 14.583 14.8 36.505c7.346-10.152 10.42-28.69 10.42-40.056c0-11.769 7.755-25.44 15.512-25.907c-6.915 11.396 1.79 21.165 9.53 45.4c2.902 9.103 2.532 24.423 4.772 34.138c.744-20.178 4.213-49.62 17.014-59.784c-5.647 12.8.836 28.818 5.27 36.518c7.154 12.424 11.49 21.836 11.49 39.638c0 11.936-4.407 23.173-11.84 31.958c8.452-1.586 14.289-3.016 14.289-3.016l27.45-5.355c.002-.002-3.987 16.401-19.314 32.197"/></svg><text x="185.0" y="777.0" text-anchor="middle" fill="#1F2937" font-size="13" font-weight="600" letter-spacing="0.2" font-family="'SF Pro Display', system-ui, -apple-system, BlinkMacSystemFont, 'Segoe UI', sans-serif">Prometheus Monitor</text>
<defs><linearGradient id="SVGQcnNVdfJ" x1="49.995%" x2="49.995%" y1="122.45%" y2="31.139%"><stop offset="0%" stop-color="#FFF100"/><stop offset="100%" stop-color="#F05A28"/></linearGradient></defs><svg x="363.80286738351253" y="121.0" width="62.39426523297491" height="68.0" viewBox="0.0 0.0 256.0 279.0"><path fill="url(#SVGQcnNVdfJ)" d="M255.59 122.775c-.46-4.675-1.226-10.04-2.759-16.017a98 98 0 0 0-7.204-19.16a106.7 106.7 0 0 0-13.412-20.54c-2.222-2.681-4.675-5.287-7.28-7.816c3.908-15.558-4.752-29.046-4.752-29.046c-14.945-.92-24.448 4.675-27.973 7.204c-.613-.23-1.15-.537-1.763-.767c-2.529-.996-5.135-1.992-7.894-2.835a130 130 0 0 0-8.277-2.3c-2.835-.69-5.67-1.226-8.583-1.686c-.537-.076-.996-.153-1.533-.23C157.646 8.738 138.946 0 138.946 0c-20.922 13.258-24.831 31.805-24.831 31.805s-.077.383-.23 1.073c-1.15.307-2.299.69-3.449.996c-1.609.46-3.218 1.073-4.751 1.686a123 123 0 0 0-4.752 1.916a117 117 0 0 0-9.35 4.599c-2.989 1.686-5.9 3.525-8.737 5.441l-.766-.307c-28.97-11.036-54.643 2.223-54.643 2.223c-2.376 30.809 11.572 50.198 14.331 53.724c-.69 1.916-1.303 3.832-1.916 5.748c-2.146 6.974-3.755 14.101-4.751 21.535c-.154 1.073-.307 2.146-.384 3.219C7.894 146.916 0 173.97 0 173.97c22.302 25.674 48.359 27.283 48.359 27.283l.077-.076c3.295 5.9 7.127 11.495 11.419 16.783a112 112 0 0 0 5.671 6.362c-8.124 23.298 1.15 42.61 1.15 42.61c24.83.92 41.155-10.882 44.603-13.564a85 85 0 0 0 7.511 2.222a109.7 109.7 0 0 0 23.298 3.449c1.916.076 3.909.153 5.825.076h2.759l1.226-.076v.076c11.726 16.708 32.265 19.084 32.265 19.084c14.638-15.405 15.48-30.733 15.48-34.028v-1.38c3.066-2.145 5.979-4.445 8.738-6.974c5.824-5.288 10.959-11.342 15.25-17.857l1.15-1.839c16.554.92 28.28-10.27 28.28-10.27c-2.759-17.243-12.569-25.673-14.638-27.283c0 0-.077-.076-.23-.153s-.153-.153-.153-.153c-.077-.077-.23-.154-.383-.23c.076-1.073.153-2.07.23-3.142c.153-1.84.153-3.756.153-5.595v-2.913l-.077-1.149l-.076-1.533c0-.536-.077-.996-.154-1.456c-.076-.46-.076-.996-.153-1.456l-.153-1.456l-.23-1.456c-.307-1.916-.613-3.756-1.073-5.672c-1.763-7.433-4.675-14.484-8.43-20.845a70.4 70.4 0 0 0-14.025-16.707c-5.365-4.752-11.42-8.584-17.704-11.42c-6.36-2.835-12.952-4.675-19.543-5.518c-3.295-.46-6.59-.613-9.886-.536h-2.453l-1.226.077c-.46 0-.92.076-1.303.076a52 52 0 0 0-4.981.69c-6.591 1.226-12.799 3.602-18.24 6.897s-10.193 7.358-14.025 11.956a54.7 54.7 0 0 0-8.89 15.021a52.9 52.9 0 0 0-3.525 16.094c-.077 1.303-.077 2.683-.077 3.986v.996l.077 1.073c.076.613.076 1.303.153 1.916c.23 2.682.766 5.288 1.456 7.74c1.456 4.982 3.755 9.503 6.59 13.335s6.285 6.975 9.887 9.504c3.602 2.452 7.51 4.215 11.343 5.364c3.832 1.15 7.664 1.61 11.266 1.61h1.993c.23 0 .46 0 .689-.077c.383 0 .766-.077 1.15-.077c.076 0 .23 0 .306-.076l.383-.077c.23 0 .46-.076.69-.076c.46-.077.843-.154 1.303-.23s.843-.154 1.226-.307c.843-.153 1.61-.46 2.376-.69c1.533-.536 3.066-1.15 4.368-1.839c1.38-.69 2.606-1.533 3.832-2.3c.307-.23.69-.459.997-.766c1.226-.996 1.456-2.835.46-4.061c-.844-1.073-2.376-1.38-3.603-.69l-.92.46a25 25 0 0 1-3.295 1.38c-1.15.382-2.375.689-3.602.919c-.613.076-1.226.153-1.916.23c-.306 0-.613.076-.996.076h-1.84c-.383 0-.766 0-1.149-.076h-.46c-.153 0-.383 0-.536-.077c-.383-.077-.69-.077-1.073-.153c-2.836-.383-5.671-1.226-8.354-2.453a29.3 29.3 0 0 1-7.74-5.058c-2.376-2.146-4.445-4.675-6.055-7.587s-2.759-6.131-3.295-9.503c-.23-1.686-.383-3.449-.307-5.135c0-.46.077-.92.077-1.38v-.613c0-.23.077-.46.077-.69c.076-.919.23-1.839.383-2.758c1.303-7.358 4.981-14.562 10.653-20.003c1.456-1.38 2.988-2.606 4.598-3.755a31.7 31.7 0 0 1 5.211-2.99a36 36 0 0 1 5.672-2.068c1.915-.537 3.908-.844 5.977-1.073c.997-.077 1.993-.154 3.066-.154h2.376l.843.077c2.222.153 4.368.46 6.514.996c4.292.92 8.507 2.53 12.415 4.675c7.818 4.369 14.485 11.113 18.547 19.237c2.07 4.061 3.525 8.43 4.215 12.951c.153 1.15.307 2.3.383 3.45l.077.842l.077.843v3.296c0 .536-.077 1.456-.077 1.992c-.077 1.227-.23 2.53-.383 3.756s-.383 2.452-.613 3.678a50 50 0 0 1-.843 3.602a64 64 0 0 1-2.3 7.128a62.4 62.4 0 0 1-7.204 13.105c-5.9 8.124-13.948 14.715-23.144 18.93c-4.599 2.069-9.427 3.602-14.408 4.368c-2.453.46-4.982.69-7.511.766h-3.832a36 36 0 0 1-4.062-.23c-5.365-.383-10.653-1.379-15.864-2.835c-5.135-1.456-10.116-3.525-14.868-5.978c-9.427-5.058-17.933-11.956-24.524-20.31a79 79 0 0 1-8.584-13.334a79 79 0 0 1-5.671-14.638c-1.38-5.058-2.223-10.193-2.606-15.405l-.077-.996v-6.821c.077-2.529.307-5.211.614-7.817c.306-2.606.766-5.288 1.302-7.894c.537-2.605 1.15-5.211 1.916-7.817a103 103 0 0 1 5.442-14.791c4.368-9.35 10.04-17.704 16.86-24.371c1.686-1.686 3.449-3.22 5.288-4.752a78 78 0 0 1 5.748-4.138c1.916-1.303 3.985-2.453 6.055-3.526a40 40 0 0 1 3.142-1.533l3.219-1.379c2.146-.92 4.368-1.686 6.667-2.376c.537-.153 1.15-.306 1.686-.536c.537-.154 1.15-.307 1.686-.46c1.15-.307 2.3-.613 3.45-.843c.536-.153 1.149-.23 1.762-.383c.613-.154 1.15-.23 1.763-.384c.613-.076 1.15-.23 1.762-.306l.843-.153l.92-.154c.613-.076 1.15-.153 1.763-.23c.69-.076 1.302-.153 1.992-.23c.537-.076 1.456-.153 1.993-.23c.383-.076.843-.076 1.226-.153l.843-.076l.383-.077h.46c.69-.077 1.303-.077 1.993-.153l.996-.077h.767c.536 0 1.149-.076 1.685-.076a99 99 0 0 1 6.745 0c4.445.153 8.813.69 13.028 1.456c8.507 1.61 16.478 4.291 23.758 7.893c7.28 3.526 13.719 7.894 19.39 12.646c.383.306.69.613 1.073.92c.306.306.69.613.996.92c.69.612 1.303 1.225 1.993 1.838c.69.614 1.303 1.227 1.916 1.84a44 44 0 0 1 1.839 1.916c2.376 2.529 4.598 5.058 6.59 7.664a99 99 0 0 1 9.734 15.25l.46.92l.46.92c.306.613.613 1.226.843 1.84c.306.613.536 1.149.843 1.762c.23.613.536 1.15.766 1.763c.92 2.299 1.84 4.521 2.53 6.59c1.149 3.373 1.992 6.362 2.682 8.967a2.043 2.043 0 0 0 2.299 1.61c1.15-.077 1.992-.996 1.992-2.146c.077-2.759 0-6.054-.383-9.81"/></svg><text x="395.0" y="207.0" text-anchor="middle" fill="#1F2937" font-size="13" font-weight="600" letter-spacing="0.2" font-family="'SF Pro Display', system-ui, -apple-system, BlinkMacSystemFont, 'Segoe UI', sans-serif">Grafana Dashboard</text>
<g transform="translate(781.0,121.0)"><polygon points="34.0,30.6 13.600000000000001,37.4 54.4,37.4" fill="#7C3AED" stroke="#6D28D9" stroke-width="1.5"/><rect x="32.5" y="37.4" width="3" height="10.2" fill="#7C3AED"/><rect x="20.4" y="47.6" width="27.200000000000003" height="4" rx="2" fill="#7C3AED"/><circle cx="17.0" cy="20.4" r="5.44" fill="#A78BFA"/><circle cx="51.0" cy="20.4" r="5.44" fill="#C4B5FD"/><line x1="23.8" y1="30.6" x2="19.04" y2="24.479999999999997" stroke="#A78BFA" stroke-width="2"/><line x1="44.2" y1="30.6" x2="48.96" y2="24.479999999999997" stroke="#C4B5FD" stroke-width="2"/></g><text x="815.0" y="207.0" text-anchor="middle" fill="#1F2937" font-size="13" font-weight="600" letter-spacing="0.2" font-family="'SF Pro Display', system-ui, -apple-system, BlinkMacSystemFont, 'Segoe UI', sans-serif">Load Balancer</text>
<g transform="translate(361.0,501.0)"><circle cx="34.0" cy="34.0" r="21.76" fill="#0D9488" stroke="#0F766E" stroke-width="1.5"/><ellipse cx="34.0" cy="34.0" rx="8.704" ry="21.76" fill="none" stroke="white" stroke-width="1" opacity="0.5"/><line x1="12.239999999999998" y1="34.0" x2="55.760000000000005" y2="34.0" stroke="white" stroke-width="1" opacity="0.4"/><polygon points="63.760000000000005,30.0 57.760000000000005,34.0 63.760000000000005,38.0" fill="#FBBF24"/><polygon points="4.239999999999998,30.0 10.239999999999998,34.0 4.239999999999998,38.0" fill="#FBBF24"/><polygon points="30.0,4.239999999999998 34.0,10.239999999999998 38.0,4.239999999999998" fill="#FBBF24"/></g><text x="395.0" y="587.0" text-anchor="middle" fill="#1F2937" font-size="13" font-weight="600" letter-spacing="0.2" font-family="'SF Pro Display', system-ui, -apple-system, BlinkMacSystemFont, 'Segoe UI', sans-serif">CDN Edge</text>
<g transform="translate(571.0,121.0)"><path d="M34.0,12.399999999999999 Q42.0,22.4 39.0,28.4 Q44.0,24.4 46.0,29.4 Q40.0,34.4 34.0,27.4 Q28.0,34.4 22.0,29.4 Q24.0,24.4 29.0,28.4 Q26.0,22.4 34.0,12.399999999999999Z" fill="#F59E0B" opacity="0.85"/><path d="M34.0,18.4 Q38.0,25.4 36.0,28.4 Q32.0,30.4 32.0,28.4 Q30.0,25.4 34.0,18.4Z" fill="#FBBF24"/><rect x="14.100000000000001" y="26.9" width="12.6" height="8.066666666666668" rx="1" fill="#DC2626"/><rect x="27.700000000000003" y="26.9" width="12.6" height="8.066666666666668" rx="1" fill="#EF4444"/><rect x="41.3" y="26.9" width="12.6" height="8.066666666666668" rx="1" fill="#DC2626"/><rect x="19.540000000000003" y="35.96666666666667" width="12.6" height="8.066666666666668" rx="1" fill="#EF4444"/><rect x="33.14" y="35.96666666666667" width="12.6" height="8.066666666666668" rx="1" fill="#DC2626"/><rect x="46.739999999999995" y="35.96666666666667" width="7.660000000000004" height="8.066666666666668" rx="1" fill="#EF4444"/><rect x="14.100000000000001" y="45.03333333333333" width="12.6" height="8.066666666666668" rx="1" fill="#DC2626"/><rect x="27.700000000000003" y="45.03333333333333" width="12.6" height="8.066666666666668" rx="1" fill="#EF4444"/><rect x="41.3" y="45.03333333333333" width="12.6" height="8.066666666666668" rx="1" fill="#DC2626"/></g><text x="605.0" y="207.0" text-anchor="middle" fill="#1F2937" font-size="13" font-weight="600" letter-spacing="0.2" font-family="'SF Pro Display', system-ui, -apple-system, BlinkMacSystemFont, 'Segoe UI', sans-serif">Firewall</text>
<g transform="translate(151.0,881.0)"><path d="M17.0,54.4 L17.0,23.8 Q17.0,13.600000000000001 34.0,13.600000000000001 Q51.0,13.600000000000001 51.0,23.8 L51.0,54.4" fill="none" stroke="#8B5CF6" stroke-width="3.5" stroke-linecap="round"/><line x1="12.0" y1="54.4" x2="56.0" y2="54.4" stroke="#8B5CF6" stroke-width="3" stroke-linecap="round"/><line x1="24.0" y1="38.0" x2="40.0" y2="38.0" stroke="#C4B5FD" stroke-width="2.5"/><polygon points="42.0,38.0 37.0,35.0 37.0,41.0" fill="#C4B5FD"/></g><text x="185.0" y="967.0" text-anchor="middle" fill="#1F2937" font-size="13" font-weight="600" letter-spacing="0.2" font-family="'SF Pro Display', system-ui, -apple-system, BlinkMacSystemFont, 'Segoe UI', sans-serif">VPN Gateway</text>
<g transform="translate(151.0,1071.0)"><path d="M48.0,18.0 L48.0,34.0 Q48.0,48.0 34.0,48.0 Q20.0,48.0 20.0,34.0" fill="none" stroke="#F97316" stroke-width="3.5" stroke-linecap="round"/><circle cx="48.0" cy="16.0" r="3" fill="#FBBF24"/><polygon points="31.0,20.0 27.0,32.0 33.0,32.0 30.0,39.0 39.0,29.0 34.0,29.0" fill="#FBBF24"/></g><text x="185.0" y="1157.0" text-anchor="middle" fill="#1F2937" font-size="13" font-weight="600" letter-spacing="0.2" font-family="'SF Pro Display', system-ui, -apple-system, BlinkMacSystemFont, 'Segoe UI', sans-serif">Webhook Handler</text>
<g transform="translate(1831.0,501.0)"><path d="M34.0,14.959999999999997 Q10.200000000000003,13.600000000000001 13.600000000000001,30.6 Q10.200000000000003,42.16 20.4,51.68 Q30.6,55.760000000000005 34.0,51.68" fill="#8B5CF6" stroke="#7C3AED" stroke-width="1"/><path d="M34.0,14.959999999999997 Q57.8,13.600000000000001 54.4,30.6 Q57.8,42.16 47.6,51.68 Q37.4,55.760000000000005 34.0,51.68" fill="#A78BFA" stroke="#7C3AED" stroke-width="1"/><line x1="34.0" y1="16.32" x2="34.0" y2="50.32" stroke="#7C3AED" stroke-width="1.5"/><circle cx="26.0" cy="26.0" r="2.5" fill="white"/><circle cx="44.0" cy="30.0" r="2.5" fill="white"/><circle cx="28.0" cy="42.0" r="2.5" fill="white"/><circle cx="41.0" cy="44.0" r="2.5" fill="white"/><line x1="26.0" y1="26.0" x2="44.0" y2="30.0" stroke="white" stroke-width="1" opacity="0.5"/><line x1="26.0" y1="26.0" x2="28.0" y2="42.0" stroke="white" stroke-width="1" opacity="0.5"/><line x1="44.0" y1="30.0" x2="41.0" y2="44.0" stroke="white" stroke-width="1" opacity="0.5"/></g><text x="1865.0" y="587.0" text-anchor="middle" fill="#1F2937" font-size="13" font-weight="600" letter-spacing="0.2" font-family="'SF Pro Display', system-ui, -apple-system, BlinkMacSystemFont, 'Segoe UI', sans-serif">AI Engine</text>
<g transform="translate(151.0,1261.0)"><rect x="21.08" y="10.879999999999999" width="25.84" height="46.24" rx="5" fill="#374151" stroke="#1F2937" stroke-width="1.5"/><rect x="24.08" y="18.88" width="19.84" height="28.240000000000002" rx="2" fill="#6366F1"/><rect x="26.08" y="21.88" width="15.84" height="4" rx="1" fill="#818CF8" opacity="0.7"/><rect x="26.08" y="27.88" width="11.84" height="3" rx="1" fill="#A5B4FC" opacity="0.5"/><rect x="29.0" y="51.120000000000005" width="10" height="2.5" rx="1.5" fill="#6B7280"/></g><text x="185.0" y="1347.0" text-anchor="middle" fill="#1F2937" font-size="13" font-weight="600" letter-spacing="0.2" font-family="'SF Pro Display', system-ui, -apple-system, BlinkMacSystemFont, 'Segoe UI', sans-serif">Mobile App</text>
<g filter="url(#badge-shadow)"><circle cx="296.0" cy="991.0" r="17" fill="white"/><circle cx="296.0" cy="991.0" r="14" fill="#5B21B6"/><text x="296.0" y="995.0" text-anchor="middle" fill="white" font-size="11" font-weight="700" letter-spacing="0.3" font-family="'SF Pro Display', system-ui, -apple-system, BlinkMacSystemFont, 'Segoe UI', sans-serif">6</text></g>
<g filter="url(#badge-shadow)"><circle cx="302.0" cy="307.0" r="17" fill="white"/><circle cx="302.0" cy="307.0" r="14" fill="#6366F1"/><text x="302.0" y="311.0" text-anchor="middle" fill="white" font-size="11" font-weight="700" letter-spacing="0.3" font-family="'SF Pro Display', system-ui, -apple-system, BlinkMacSystemFont, 'Segoe UI', sans-serif">1</text></g>
<g filter="url(#badge-shadow)"><circle cx="500.0" cy="383.0" r="17" fill="white"/><circle cx="500.0" cy="383.0" r="14" fill="#4F46E5"/><text x="500.0" y="387.0" text-anchor="middle" fill="white" font-size="11" font-weight="700" letter-spacing="0.3" font-family="'SF Pro Display', system-ui, -apple-system, BlinkMacSystemFont, 'Segoe UI', sans-serif">7</text></g>
<g filter="url(#badge-shadow)"><circle cx="710.0" cy="155.0" r="17" fill="white"/><circle cx="710.0" cy="155.0" r="14" fill="#7C3AED"/><text x="710.0" y="159.0" text-anchor="middle" fill="white" font-size="11" font-weight="700" letter-spacing="0.3" font-family="'SF Pro Display', system-ui, -apple-system, BlinkMacSystemFont, 'Segoe UI', sans-serif">14</text></g>
<g filter="url(#badge-shadow)"><circle cx="920.0" cy="155.0" r="17" fill="white"/><circle cx="920.0" cy="155.0" r="14" fill="#4338CA"/><text x="920.0" y="159.0" text-anchor="middle" fill="white" font-size="11" font-weight="700" letter-spacing="0.3" font-family="'SF Pro Display', system-ui, -apple-system, BlinkMacSystemFont, 'Segoe UI', sans-serif">18</text></g>
<g filter="url(#badge-shadow)"><circle cx="1130.0" cy="155.0" r="17" fill="white"/><circle cx="1130.0" cy="155.0" r="14" fill="#3730A3"/><text x="1130.0" y="159.0" text-anchor="middle" fill="white" font-size="11" font-weight="700" letter-spacing="0.3" font-family="'SF Pro Display', system-ui, -apple-system, BlinkMacSystemFont, 'Segoe UI', sans-serif">9</text></g>
<g filter="url(#badge-shadow)"><circle cx="1121.0" cy="231.0" r="17" fill="white"/><circle cx="1121.0" cy="231.0" r="14" fill="#312E81"/><text x="1121.0" y="235.0" text-anchor="middle" fill="white" font-size="11" font-weight="700" letter-spacing="0.3" font-family="'SF Pro Display', system-ui, -apple-system, BlinkMacSystemFont, 'Segoe UI', sans-serif">10</text></g>
<g filter="url(#badge-shadow)"><circle cx="1127.0" cy="307.0" r="17" fill="white"/><circle cx="1127.0" cy="307.0" r="14" fill="#6366F1"/><text x="1127.0" y="311.0" text-anchor="middle" fill="white" font-size="11" font-weight="700" letter-spacing="0.3" font-family="'SF Pro Display', system-ui, -apple-system, BlinkMacSystemFont, 'Segoe UI', sans-serif">11</text></g>
<g filter="url(#badge-shadow)"><circle cx="1133.0" cy="383.0" r="17" fill="white"/><circle cx="1133.0" cy="383.0" r="14" fill="#8B5CF6"/><text x="1133.0" y="387.0" text-anchor="middle" fill="white" font-size="11" font-weight="700" letter-spacing="0.3" font-family="'SF Pro Display', system-ui, -apple-system, BlinkMacSystemFont, 'Segoe UI', sans-serif">12</text></g>
<g filter="url(#badge-shadow)"><circle cx="1139.0" cy="459.0" r="17" fill="white"/><circle cx="1139.0" cy="459.0" r="14" fill="#A855F7"/><text x="1139.0" y="463.0" text-anchor="middle" fill="white" font-size="11" font-weight="700" letter-spacing="0.3" font-family="'SF Pro Display', system-ui, -apple-system, BlinkMacSystemFont, 'Segoe UI', sans-serif">13</text></g>
<g filter="url(#badge-shadow)"><circle cx="1346.0" cy="763.0" r="17" fill="white"/><circle cx="1346.0" cy="763.0" r="14" fill="#4F46E5"/><text x="1346.0" y="767.0" text-anchor="middle" fill="white" font-size="11" font-weight="700" letter-spacing="0.3" font-family="'SF Pro Display', system-ui, -apple-system, BlinkMacSystemFont, 'Segoe UI', sans-serif">17</text></g>
<g filter="url(#badge-shadow)"><circle cx="1547.0" cy="383.0" r="17" fill="white"/><circle cx="1547.0" cy="383.0" r="14" fill="#3730A3"/><text x="1547.0" y="387.0" text-anchor="middle" fill="white" font-size="11" font-weight="700" letter-spacing="0.3" font-family="'SF Pro Display', system-ui, -apple-system, BlinkMacSystemFont, 'Segoe UI', sans-serif">19</text></g>
<g filter="url(#badge-shadow)"><circle cx="1553.0" cy="459.0" r="17" fill="white"/><circle cx="1553.0" cy="459.0" r="14" fill="#312E81"/><text x="1553.0" y="463.0" text-anchor="middle" fill="white" font-size="11" font-weight="700" letter-spacing="0.3" font-family="'SF Pro Display', system-ui, -apple-system, BlinkMacSystemFont, 'Segoe UI', sans-serif">20</text></g>
<g filter="url(#badge-shadow)"><circle cx="1757.0" cy="269.0" r="17" fill="white"/><circle cx="1757.0" cy="269.0" r="14" fill="#6366F1"/><text x="1757.0" y="273.0" text-anchor="middle" fill="white" font-size="11" font-weight="700" letter-spacing="0.3" font-family="'SF Pro Display', system-ui, -apple-system, BlinkMacSystemFont, 'Segoe UI', sans-serif">21</text></g>
<g filter="url(#badge-shadow)"><circle cx="1760.0" cy="345.0" r="17" fill="white"/><circle cx="1760.0" cy="345.0" r="14" fill="#8B5CF6"/><text x="1760.0" y="349.0" text-anchor="middle" fill="white" font-size="11" font-weight="700" letter-spacing="0.3" font-family="'SF Pro Display', system-ui, -apple-system, BlinkMacSystemFont, 'Segoe UI', sans-serif">22</text></g>
<g filter="url(#badge-shadow)"><circle cx="1763.0" cy="421.0" r="17" fill="white"/><circle cx="1763.0" cy="421.0" r="14" fill="#A855F7"/><text x="1763.0" y="425.0" text-anchor="middle" fill="white" font-size="11" font-weight="700" letter-spacing="0.3" font-family="'SF Pro Display', system-ui, -apple-system, BlinkMacSystemFont, 'Segoe UI', sans-serif">23</text></g>
<g filter="url(#badge-shadow)"><circle cx="1334.0" cy="383.0" r="17" fill="white"/><circle cx="1334.0" cy="383.0" r="14" fill="#6D28D9"/><text x="1334.0" y="387.0" text-anchor="middle" fill="white" font-size="11" font-weight="700" letter-spacing="0.3" font-family="'SF Pro Display', system-ui, -apple-system, BlinkMacSystemFont, 'Segoe UI', sans-serif">15</text></g>
<g filter="url(#badge-shadow)"><circle cx="1340.0" cy="459.0" r="17" fill="white"/><circle cx="1340.0" cy="459.0" r="14" fill="#5B21B6"/><text x="1340.0" y="463.0" text-anchor="middle" fill="white" font-size="11" font-weight="700" letter-spacing="0.3" font-family="'SF Pro Display', system-ui, -apple-system, BlinkMacSystemFont, 'Segoe UI', sans-serif">16</text></g>
<g filter="url(#badge-shadow)"><circle cx="605.0" cy="725.0" r="17" fill="white"/><circle cx="605.0" cy="725.0" r="14" fill="#6D28D9"/><text x="605.0" y="729.0" text-anchor="middle" fill="white" font-size="11" font-weight="700" letter-spacing="0.3" font-family="'SF Pro Display', system-ui, -apple-system, BlinkMacSystemFont, 'Segoe UI', sans-serif">5</text></g>
<g filter="url(#badge-shadow)"><circle cx="284.0" cy="687.0" r="17" fill="white"/><circle cx="284.0" cy="687.0" r="14" fill="#7C3AED"/><text x="284.0" y="691.0" text-anchor="middle" fill="white" font-size="11" font-weight="700" letter-spacing="0.3" font-family="'SF Pro Display', system-ui, -apple-system, BlinkMacSystemFont, 'Segoe UI', sans-serif">4</text></g>
<g filter="url(#badge-shadow)"><circle cx="290.0" cy="459.0" r="17" fill="white"/><circle cx="290.0" cy="459.0" r="14" fill="#8B5CF6"/><text x="290.0" y="463.0" text-anchor="middle" fill="white" font-size="11" font-weight="700" letter-spacing="0.3" font-family="'SF Pro Display', system-ui, -apple-system, BlinkMacSystemFont, 'Segoe UI', sans-serif">2</text></g>
<g filter="url(#badge-shadow)"><circle cx="710.0" cy="269.0" r="17" fill="white"/><circle cx="710.0" cy="269.0" r="14" fill="#4338CA"/><text x="710.0" y="273.0" text-anchor="middle" fill="white" font-size="11" font-weight="700" letter-spacing="0.3" font-family="'SF Pro Display', system-ui, -apple-system, BlinkMacSystemFont, 'Segoe UI', sans-serif">8</text></g>
<g filter="url(#badge-shadow)"><circle cx="278.0" cy="497.0" r="17" fill="white"/><circle cx="278.0" cy="497.0" r="14" fill="#A855F7"/><text x="278.0" y="501.0" text-anchor="middle" fill="white" font-size="11" font-weight="700" letter-spacing="0.3" font-family="'SF Pro Display', system-ui, -apple-system, BlinkMacSystemFont, 'Segoe UI', sans-serif">3</text></g>
</svg>