<svg xmlns="http://www.w3.org/2000/svg" viewBox="0 0 2050.0 1110.0" width="2050.0" height="1110.0" style="font-family: 'SF Pro Display', system-ui, -apple-system, BlinkMacSystemFont, 'Segoe UI', sans-serif">
<defs><filter id="badge-shadow" x="-40%" y="-40%" width="180%" height="180%"><feDropShadow dx="0" dy="1" stdDeviation="2.5" flood-color="#000" flood-opacity="0.12"/></filter></defs>
<rect width="2050.0" height="1110.0" fill="#F8F8F8"/>
<text x="1025.0" y="40" text-anchor="middle" fill="#111827" font-size="20" font-weight="700" font-family="'SF Pro Display', system-ui, -apple-system, BlinkMacSystemFont, 'Segoe UI', sans-serif">E-Commerce Platform Architecture</text>
<rect x="120.0" y="115.0" width="1600.0" height="675.0" rx="14" fill="#EDF5FC" fill-opacity="0.45" stroke="#96C2E3" stroke-width="1.5" stroke-dasharray="8,4"/><text x="920.0" y="107.0" text-anchor="middle" fill="#1A547E" font-size="10" font-weight="700" letter-spacing="1.0" opacity="0.85" font-family="'SF Pro Display', system-ui, -apple-system, BlinkMacSystemFont, 'Segoe UI', sans-serif">PLATFORM</text>
<rect x="960.0" y="305.0" width="340.0" height="675.0" rx="14" fill="#FBEDFC" fill-opacity="0.45" stroke="#E296E3" stroke-width="1.5" stroke-dasharray="8,4"/><text x="1130.0" y="297.0" text-anchor="middle" fill="#7C1A7E" font-size="10" font-weight="700" letter-spacing="1.0" opacity="0.85" font-family="'SF Pro Display', system-ui, -apple-system, BlinkMacSystemFont, 'Segoe UI', sans-serif">CORE BUSINESS</text>
<rect x="1170.0" y="305.0" width="340.0" height="485.0" rx="14" fill="#FCEDF3" fill-opacity="0.45" stroke="#E396B7" stroke-width="1.5" stroke-dasharray="8,4"/><text x="1340.0" y="297.0" text-anchor="middle" fill="#7E1A45" font-size="10" font-weight="700" letter-spacing="1.0" opacity="0.85" font-family="'SF Pro Display', system-ui, -apple-system, BlinkMacSystemFont, 'Segoe UI', sans-serif">DATA &amp; MESSAGING</text>
<rect x="1380.0" y="115.0" width="550.0" height="295.0" rx="14" fill="#FCF7ED" fill-opacity="0.45" stroke="#E3C896" stroke-width="1.5" stroke-dasharray="8,4"/><text x="1655.0" y="107.0" text-anchor="middle" fill="#7E5C1A" font-size="10" font-weight="700" letter-spacing="1.0" opacity="0.85" font-family="'SF Pro Display', system-ui, -apple-system, BlinkMacSystemFont, 'Segoe UI', sans-serif">PAYMENT &amp; FULFILLMENT</text>
<rect x="120.0" y="115.0" width="340.0" height="295.0" rx="14" fill="#EDFCF9" fill-opacity="0.45" stroke="#96E3D6" stroke-width="1.5" stroke-dasharray="8,4"/><text x="290.0" y="107.0" text-anchor="middle" fill="#1A7E6E" font-size="10" font-weight="700" letter-spacing="1.0" opacity="0.85" font-family="'SF Pro Display', system-ui, -apple-system, BlinkMacSystemFont, 'Segoe UI', sans-serif">CLIENT LAYER</text>
<rect x="540.0" y="115.0" width="550.0" height="105.0" rx="14" fill="#EEEDFC" fill-opacity="0.45" stroke="#9C96E3" stroke-width="1.5" stroke-dasharray="8,4"/><text x="815.0" y="107.0" text-anchor="middle" fill="#231A7E" font-size="10" font-weight="700" letter-spacing="1.0" opacity="0.85" font-family="'SF Pro Display', system-ui, -apple-system, BlinkMacSystemFont, 'Segoe UI', sans-serif">EDGE SERVICES</text>
<path d="M185.0,155.0 L395.0,155.0" fill="none" stroke="#B8BFC8" stroke-width="1.6" stroke-linecap="round" stroke-linejoin="round"/><polygon points="395.0,155.0 386.71045105397405,158.50476508077784 386.71045105397405,151.49523491922216" fill="#B8BFC8"/>
<path d="M185.0,345.0 L287.0,345.0 L287.0,155.0 L395.0,155.0" fill="none" stroke="#B8BFC8" stroke-width="1.6" stroke-linecap="round" stroke-linejoin="round"/><polygon points="395.0,155.0 386.71045105397405,158.50476508077784 386.71045105397405,151.49523491922216" fill="#B8BFC8"/>
<path d="M395.0,155.0 L605.0,155.0" fill="none" stroke="#B8BFC8" stroke-width="1.6" stroke-linecap="round" stroke-linejoin="round"/><polygon points="605.0,155.0 596.710451053974,158.50476508077784 596.710451053974,151.49523491922216" fill="#B8BFC8"/>
<path d="M605.0,155.0 L815.0,155.0" fill="none" stroke="#B8BFC8" stroke-width="1.6" stroke-linecap="round" stroke-linejoin="round"/><polygon points="815.0,155.0 806.710451053974,158.50476508077784 806.710451053974,151.49523491922216" fill="#B8BFC8"/>
<path d="M815.0,155.0 L1025.0,155.0" fill="none" stroke="#B8BFC8" stroke-width="1.6" stroke-linecap="round" stroke-linejoin="round"/><polygon points="1025.0,155.0 1016.710451053974,158.50476508077784 1016.710451053974,151.49523491922216" fill="#B8BFC8"/>
<path d="M1025.0,155.0 L1235.0,155.0" fill="none" stroke="#B8BFC8" stroke-width="1.6" stroke-linecap="round" stroke-linejoin="round"/><polygon points="1235.0,155.0 1226.710451053974,158.50476508077784 1226.710451053974,151.49523491922216" fill="#B8BFC8"/>
<path d="M815.0,155.0 L911.0,155.0 L911.0,345.0 L1025.0,345.0" fill="none" stroke="#B8BFC8" stroke-width="1.6" stroke-linecap="round" stroke-linejoin="round"/><polygon points="1025.0,345.0 1016.710451053974,348.5047650807779 1016.710451053974,341.4952349192221" fill="#B8BFC8"/>
<path d="M815.0,155.0 L917.0,155.0 L917.0,535.0 L1025.0,535.0" fill="none" stroke="#B8BFC8" stroke-width="1.6" stroke-linecap="round" stroke-linejoin="round"/><polygon points="1025.0,535.0 1016.710451053974,538.5047650807778 1016.710451053974,531.4952349192222" fill="#B8BFC8"/>
<path d="M815.0,155.0 L923.0,155.0 L923.0,725.0 L1025.0,725.0" fill="none" stroke="#B8BFC8" stroke-width="1.6" stroke-linecap="round" stroke-linejoin="round"/><polygon points="1025.0,725.0 1016.710451053974,728.5047650807778 1016.710451053974,721.4952349192222" fill="#B8BFC8"/>
<path d="M815.0,155.0 L929.0,155.0 L929.0,915.0 L1025.0,915.0" fill="none" stroke="#B8BFC8" stroke-width="1.6" stroke-linecap="round" stroke-linejoin="round"/><polygon points="1025.0,915.0 1016.710451053974,918.5047650807778 1016.710451053974,911.4952349192222" fill="#B8BFC8"/>
<path d="M1025.0,535.0 L1121.0,535.0 L1121.0,345.0 L1235.0,345.0" fill="none" stroke="#B8BFC8" stroke-width="1.6" stroke-linecap="round" stroke-linejoin="round"/><polygon points="1235.0,345.0 1226.710451053974,348.5047650807779 1226.710451053974,341.4952349192221" fill="#B8BFC8"/>
<path d="M1025.0,535.0 L1133.0,535.0 L1133.0,725.0 L1235.0,725.0" fill="none" stroke="#B8BFC8" stroke-width="1.6" stroke-linecap="round" stroke-linejoin="round"/><polygon points="1235.0,725.0 1226.710451053974,728.5047650807778 1226.710451053974,721.4952349192222" fill="#B8BFC8"/>
<path d="M1025.0,915.0 L1139.0,915.0 L1139.0,725.0 L1235.0,725.0" fill="none" stroke="#B8BFC8" stroke-width="1.6" stroke-linecap="round" stroke-linejoin="round"/><polygon points="1235.0,725.0 1226.710451053974,728.5047650807778 1226.710451053974,721.4952349192222" fill="#B8BFC8"/>
<path d="M1025.0,725.0 L1235.0,725.0" fill="none" stroke="#B8BFC8" stroke-width="1.6" stroke-linecap="round" stroke-linejoin="round"/><polygon points="1235.0,725.0 1226.710451053974,728.5047650807778 1226.710451053974,721.4952349192222" fill="#B8BFC8"/>
<path d="M1025.0,725.0 L1127.0,725.0 L1127.0,535.0 L1235.0,535.0" fill="none" stroke="#B8BFC8" stroke-width="1.6" stroke-linecap="round" stroke-linejoin="round"/><polygon points="1235.0,535.0 1226.710451053974,538.5047650807778 1226.710451053974,531.4952349192222" fill="#B8BFC8"/>
<path d="M1235.0,535.0 L1337.0,535.0 L1337.0,155.0 L1445.0,155.0" fill="none" stroke="#B8BFC8" stroke-width="1.6" stroke-linecap="round" stroke-linejoin="round"/><polygon points="1445.0,155.0 1436.710451053974,158.50476508077784 1436.710451053974,151.49523491922216" fill="#B8BFC8"/>
<path d="M1235.0,535.0 L1343.0,535.0 L1343.0,345.0 L1445.0,345.0" fill="none" stroke="#B8BFC8" stroke-width="1.6" stroke-linecap="round" stroke-linejoin="round"/><polygon points="1445.0,345.0 1436.710451053974,348.5047650807779 1436.710451053974,341.4952349192221" fill="#B8BFC8"/>
<path d="M1445.0,345.0 L1547.0,345.0 L1547.0,155.0 L1655.0,155.0" fill="none" stroke="#B8BFC8" stroke-width="1.6" stroke-linecap="round" stroke-linejoin="round"/><polygon points="1655.0,155.0 1646.710451053974,158.50476508077784 1646.710451053974,151.49523491922216" fill="#B8BFC8"/>
<path d="M1445.0,345.0 L1655.0,345.0" fill="none" stroke="#B8BFC8" stroke-width="1.6" stroke-linecap="round" stroke-linejoin="round"/><polygon points="1655.0,345.0 1646.710451053974,348.5047650807779 1646.710451053974,341.4952349192221" fill="#B8BFC8"/>
<path d="M1445.0,345.0 L1553.0,345.0 L1553.0,535.0 L1655.0,535.0" fill="none" stroke="#B8BFC8" stroke-width="1.6" stroke-linecap="round" stroke-linejoin="round"/><polygon points="1655.0,535.0 1646.710451053974,538.5047650807778 1646.710451053974,531.4952349192222" fill="#B8BFC8"/>
<path d="M1655.0,155.0 L1865.0,155.0" fill="none" stroke="#B8BFC8" stroke-width="1.6" stroke-linecap="round" stroke-linejoin="round"/><polygon points="1865.0,155.0 1856.710451053974,158.50476508077784 1856.710451053974,151.49523491922216" fill="#B8BFC8"/>
<path d="M185.0,535.0 L500.0,535.0 L500.0,155.0 L815.0,155.0" fill="none" stroke="#B8BFC8" stroke-width="1.6" stroke-linecap="round" stroke-linejoin="round"/><polygon points="815.0,155.0 806.710451053974,158.50476508077784 806.710451053974,151.49523491922216" fill="#B8BFC8"/>
<path d="M185.0,535.0 L815.0,535.0 L815.0,345.0 L1445.0,345.0" fill="none" stroke="#B8BFC8" stroke-width="1.6" stroke-linecap="round" stroke-linejoin="round"/><polygon points="1445.0,345.0 1436.710451053974,348.5047650807779 1436.710451053974,341.4952349192221" fill="#B8BFC8"/>
<path d="M185.0,725.0 L293.0,725.0 L293.0,345.0 L395.0,345.0" fill="none" stroke="#B8BFC8" stroke-width="1.6" stroke-linecap="round" stroke-linejoin="round"/><polygon points="395.0,345.0 386.71045105397405,348.5047650807779 386.71045105397405,341.4952349192221" fill="#B8BFC8"/>
<path d="M395.0,345.0 L605.0,345.0 L605.0,155.0 L815.0,155.0" fill="none" stroke="#B8BFC8" stroke-width="1.6" stroke-linecap="round" stroke-linejoin="round"/><polygon points="815.0,155.0 806.710451053974,158.50476508077784 806.710451053974,151.49523491922216" fill="#B8BFC8"/>
<g transform="translate(151.0,121.0)"><circle cx="34.0" cy="34.0" r="27.200000000000003" fill="#0D9488" stroke="#0F766E" stroke-width="1.5"/><ellipse cx="34.0" cy="34.0" rx="10.880000000000003" ry="27.200000000000003" fill="none" stroke="white" stroke-width="1.2" opacity="0.7"/><line x1="6.799999999999997" y1="34.0" x2="61.2" y2="34.0" stroke="white" stroke-width="1" opacity="0.5"/><ellipse cx="34.0" cy="34.0" rx="27.200000000000003" ry="9.52" fill="none" stroke="white" stroke-width="1" opacity="0.5"/></g><text x="185.0" y="207.0" text-anchor="middle" fill="#1F2937" font-size="13" font-weight="600" letter-spacing="0.2" font-family="'SF Pro Display', system-ui, -apple-system, BlinkMacSystemFont, 'Segoe UI', sans-serif">Web Browser</text>
<g transform="translate(151.0,311.0)"><rect x="21.08" y="10.879999999999999" width="25.84" height="46.24" rx="5" fill="#374151" stroke="#1F2937" stroke-width="1.5"/><rect x="24.08" y="18.88" width="19.84" height="28.240000000000002" rx="2" fill="#6366F1"/><rect x="26.08" y="21.88" width="15.84" height="4" rx="1" fill="#818CF8" opacity="0.7"/><rect x="26.08" y="27.88" width="11.84" height="3" rx="1" fill="#A5B4FC" opacity="0.5"/><rect x="29.0" y="51.120000000000005" width="10" height="2.5" rx="1.5" fill="#6B7280"/></g><text x="185.0" y="397.0" text-anchor="middle" fill="#1F2937" font-size="13" font-weight="600" letter-spacing="0.2" font-family="'SF Pro Display', system-ui, -apple-system, BlinkMacSystemFont, 'Segoe UI', sans-serif">Mobile App</text>
<g transform="translate(361.0,121.0)"><circle cx="34.0" cy="34.0" r="21.76" fill="#0D9488" stroke="#0F766E" stroke-width="1.5"/><ellipse cx="34.0" cy="34.0" rx="8.704" ry="21.76" fill="none" stroke="white" stroke-width="1" opacity="0.5"/><line x1="12.239999999999998" y1="34.0" x2="55.760000000000005" y2="34.0" stroke="white" stroke-width="1" opacity="0.4"/><polygon points="63.760000000000005,30.0 57.760000000000005,34.0 63.760000000000005,38.0" fill="#FBBF24"/><polygon points="4.239999999999998,30.0 10.239999999999998,34.0 4.239999999999998,38.0" fill="#FBBF24"/><polygon points="30.0,4.239999999999998 34.0,10.239999999999998 38.0,4.239999999999998" fill="#FBBF24"/></g><text x="395.0" y="207.0" text-anchor="middle" fill="#1F2937" font-size="13" font-weight="600" letter-spacing="0.2" font-family="'SF Pro Display', system-ui, -apple-system, BlinkMacSystemFont, 'Segoe UI', sans-serif">CDN Edge Network</text>
<g transform="translate(571.0,121.0)"><polygon points="34.0,30.6 13.600000000000001,37.4 54.4,37.4" fill="#7C3AED" stroke="#6D28D9" stroke-width="1.5"/><rect x="32.5" y="37.4" width="3" height="10.2" fill="#7C3AED"/><rect x="20.4" y="47.6" width="27.200000000000003" height="4" rx="2" fill="#7C3AED"/><circle cx="17.0" cy="20.4" r="5.44" fill="#A78BFA"/><circle cx="51.0" cy="20.4" r="5.44" fill="#C4B5FD"/><line x1="23.8" y1="30.6" x2="19.04" y2="24.479999999999997" stroke="#A78BFA" stroke-width="2"/><line x1="44.2" y1="30.6" x2="48.96" y2="24.479999999999997" stroke="#C4B5FD" stroke-width="2"/></g><text x="605.0" y="207.0" text-anchor="middle" fill="#1F2937" font-size="13" font-weight="600" letter-spacing="0.2" font-family="'SF Pro Display', system-ui, -apple-system, BlinkMacSystemFont, 'Segoe UI', sans-serif">Load Balancer</text>
<g transform="translate(781.0,121.0)"><path d="M17.0,54.4 L17.0,23.8 Q17.0,13.600000000000001 34.0,13.600000000000001 Q51.0,13.600000000000001 51.0,23.8 L51.0,54.4" fill="none" stroke="#8B5CF6" stroke-width="3.5" stroke-linecap="round"/><line x1="12.0" y1="54.4" x2="56.0" y2="54.4" stroke="#8B5CF6" stroke-width="3" stroke-linecap="round"/><line x1="24.0" y1="38.0" x2="40.0" y2="38.0" stroke="#C4B5FD" stroke-width="2.5"/><polygon points="42.0,38.0 37.0,35.0 37.0,41.0" fill="#C4B5FD"/></g><text x="815.0" y="207.0" text-anchor="middle" fill="#1F2937" font-size="13" font-weight="600" letter-spacing="0.2" font-family="'SF Pro Display', system-ui, -apple-system, BlinkMacSystemFont, 'Segoe UI', sans-serif">API Gateway</text>
<g transform="translate(991.0,121.0)"><path d="M34.0,6.799999999999997 L54.4,17.68 L54.4,36.72 Q54.4,53.04 34.0,61.2 Q13.600000000000001,53.04 13.600000000000001,36.72 L13.600000000000001,17.68 Z" fill="#10B981" stroke="#059669" stroke-width="1.5"/><polyline points="27.0,35.0 32.0,41.0 43.0,29.0" fill="none" stroke="white" stroke-width="3" stroke-linecap="round" stroke-linejoin="round"/></g><text x="1025.0" y="207.0" text-anchor="middle" fill="#1F2937" font-size="13" font-weight="600" letter-spacing="0.2" font-family="'SF Pro Display', system-ui, -apple-system, BlinkMacSystemFont, 'Segoe UI', sans-serif">Auth Service</text>
<g transform="translate(991.0,311.0)"><circle cx="34.0" cy="23.8" r="11.56" fill="#7C3AED"/><path d="M13.600000000000001,57.8 Q13.600000000000001,37.4 34.0,37.4 Q54.4,37.4 54.4,57.8" fill="#7C3AED"/></g><text x="1025.0" y="397.0" text-anchor="middle" fill="#1F2937" font-size="13" font-weight="600" letter-spacing="0.2" font-family="'SF Pro Display', system-ui, -apple-system, BlinkMacSystemFont, 'Segoe UI', sans-serif">User Service</text>
<g transform="translate(991.0,501.0)"><rect x="14.96" y="17.68" width="17.68" height="14.96" rx="4" fill="#0EA5E9" stroke="#0284C7" stroke-width="1"/><line x1="18.96" y1="26.64" x2="28.64" y2="26.64" stroke="white" stroke-width="1.5" opacity="0.6"/><circle cx="23.8" cy="22.916" r="3" fill="white" opacity="0.5"/><rect x="35.36" y="17.68" width="17.68" height="14.96" rx="4" fill="#38BDF8" stroke="#0EA5E9" stroke-width="1"/><line x1="39.36" y1="26.64" x2="49.04" y2="26.64" stroke="white" stroke-width="1.5" opacity="0.6"/><circle cx="44.2" cy="22.916" r="3" fill="white" opacity="0.5"/><rect x="14.96" y="35.36" width="17.68" height="14.96" rx="4" fill="#7DD3FC" stroke="#38BDF8" stroke-width="1"/><line x1="18.96" y1="44.32" x2="28.64" y2="44.32" stroke="white" stroke-width="1.5" opacity="0.6"/><circle cx="23.8" cy="40.596" r="3" fill="white" opacity="0.5"/><rect x="35.36" y="35.36" width="17.68" height="14.96" rx="4" fill="#BAE6FD" stroke="#7DD3FC" stroke-width="1"/><line x1="39.36" y1="44.32" x2="49.04" y2="44.32" stroke="white" stroke-width="1.5" opacity="0.6"/><circle cx="44.2" cy="40.596" r="3" fill="white" opacity="0.5"/></g><text x="1025.0" y="587.0" text-anchor="middle" fill="#1F2937" font-size="13" font-weight="600" letter-spacing="0.2" font-family="'SF Pro Display', system-ui, -apple-system, BlinkMacSystemFont, 'Segoe UI', sans-serif">Product Catalog</text>
<g transform="translate(991.0,881.0)"><circle cx="30.0" cy="30.0" r="14.96" fill="#DBEAFE"/><circle cx="30.0" cy="30.0" r="14.96" fill="none" stroke="#3B82F6" stroke-width="3"/><line x1="39.724000000000004" y1="39.724000000000004" x2="53.040000000000006" y2="53.040000000000006" stroke="#2563EB" stroke-width="4" stroke-linecap="round"/><path d="M24.764,22.52 Q30.0,18.78 35.236,22.52" fill="none" stroke="white" stroke-width="2" stroke-linecap="round" opacity="0.7"/></g><text x="1025.0" y="967.0" text-anchor="middle" fill="#1F2937" font-size="13" font-weight="600" letter-spacing="0.2" font-family="'SF Pro Display', system-ui, -apple-system, BlinkMacSystemFont, 'Segoe UI', sans-serif">Search Engine</text>
<g transform="translate(991.0,691.0)"><path d="M12.239999999999998,21.759999999999998 L19.04,42.16 L48.96,42.16 L53.040000000000006,21.759999999999998" fill="#F59E0B" stroke="#D97706" stroke-width="1.5" stroke-linejoin="round"/><path d="M12.239999999999998,21.759999999999998 L8.16,14.959999999999997" stroke="#D97706" stroke-width="2.5" stroke-linecap="round"/><circle cx="24.479999999999997" cy="47.6" r="3.4000000000000004" fill="#D97706"/><circle cx="43.52" cy="47.6" r="3.4000000000000004" fill="#D97706"/><circle cx="24.479999999999997" cy="47.6" r="1.7000000000000002" fill="#FBBF24"/><circle cx="43.52" cy="47.6" r="1.7000000000000002" fill="#FBBF24"/><circle cx="34.0" cy="32.64" r="4.08" fill="white" opacity="0.8"/></g><text x="1025.0" y="777.0" text-anchor="middle" fill="#1F2937" font-size="13" font-weight="600" letter-spacing="0.2" font-family="'SF Pro Display', system-ui, -apple-system, BlinkMacSystemFont, 'Segoe UI', sans-serif">Shopping Cart</text>
<g transform="translate(1201.0,501.0)"><rect x="15.299999999999997" y="26.86" width="37.400000000000006" height="22.2768" rx="3" fill="#8B5CF6"/><rect x="13.299999999999997" y="21.148" width="41.400000000000006" height="7.14" rx="3" fill="#A78BFA"/><rect x="31.5" y="26.86" width="5" height="22.2768" fill="#C4B5FD" opacity="0.5"/><polyline points="28.0,38.0 33.0,43.0 42.0,33.0" fill="none" stroke="white" stroke-width="2.5" stroke-linecap="round" stroke-linejoin="round"/></g><text x="1235.0" y="587.0" text-anchor="middle" fill="#1F2937" font-size="13" font-weight="600" letter-spacing="0.2" font-family="'SF Pro Display', system-ui, -apple-system, BlinkMacSystemFont, 'Segoe UI', sans-serif">Order Service</text>
<g transform="translate(1411.0,121.0)"><path d="M17.0,54.4 L17.0,23.8 Q17.0,13.600000000000001 34.0,13.600000000000001 Q51.0,13.600000000000001 51.0,23.8 L51.0,54.4" fill="none" stroke="#8B5CF6" stroke-width="3.5" stroke-linecap="round"/><line x1="12.0" y1="54.4" x2="56.0" y2="54.4" stroke="#8B5CF6" stroke-width="3" stroke-linecap="round"/><line x1="24.0" y1="38.0" x2="40.0" y2="38.0" stroke="#C4B5FD" stroke-width="2.5"/><polygon points="42.0,38.0 37.0,35.0 37.0,41.0" fill="#C4B5FD"/></g><text x="1445.0" y="207.0" text-anchor="middle" fill="#1F2937" font-size="13" font-weight="600" letter-spacing="0.2" font-family="'SF Pro Display', system-ui, -apple-system, BlinkMacSystemFont, 'Segoe UI', sans-serif">Payment Gateway</text>
<g transform="translate(1201.0,311.0)"><ellipse cx="34.0" cy="17.340000000000003" rx="20.4" ry="7.139999999999999" fill="#3B82F6"/><rect x="13.600000000000001" y="17.340000000000003" width="40.8" height="33.31999999999999" fill="#3B82F6"/><ellipse cx="34.0" cy="50.66" rx="20.4" ry="7.139999999999999" fill="#2563EB"/><ellipse cx="34.0" cy="17.340000000000003" rx="20.4" ry="7.139999999999999" fill="#60A5FA"/><text x="34.0" y="38.0" text-anchor="middle" fill="white" font-size="12" font-weight="700" font-family="system-ui">DB</text></g><text x="1235.0" y="397.0" text-anchor="middle" fill="#1F2937" font-size="13" font-weight="600" letter-spacing="0.2" font-family="'SF Pro Display', system-ui, -apple-system, BlinkMacSystemFont, 'Segoe UI', sans-serif">Inventory Database</text>
<g transform="translate(1621.0,121.0)"><path d="M34.0,14.959999999999997 Q13.04,30.6 19.04,39.44 L16.04,43.52 L51.96,43.52 L48.96,39.44 Q54.96,30.6 34.0,14.959999999999997Z" fill="#F59E0B" stroke="#D97706" stroke-width="1.5"/><circle cx="34.0" cy="47.6" r="3.06" fill="#D97706"/><circle cx="34.0" cy="13.600000000000001" r="2.3800000000000003" fill="#D97706"/><circle cx="50.96" cy="23.119999999999997" r="4.42" fill="#EF4444" stroke="white" stroke-width="1.5"/></g><text x="1655.0" y="207.0" text-anchor="middle" fill="#1F2937" font-size="13" font-weight="600" letter-spacing="0.2" font-family="'SF Pro Display', system-ui, -apple-system, BlinkMacSystemFont, 'Segoe UI', sans-serif">Notification</text><text x="1655.0" y="224.0" text-anchor="middle" fill="#1F2937" font-size="13" font-weight="600" letter-spacing="0.2" font-family="'SF Pro Display', system-ui, -apple-system, BlinkMacSystemFont, 'Segoe UI', sans-serif">Service</text>
<g transform="translate(1831.0,121.0)"><rect x="11.899999999999999" y="19.04" width="44.2" height="29.92" rx="4" fill="#0EA5E9"/><path d="M11.899999999999999,19.04 L34.0,37.0 L56.1,19.04" fill="#38BDF8" stroke="#0284C7" stroke-width="1.5" stroke-linejoin="round"/><line x1="11.899999999999999" y1="48.96" x2="29.0" y2="34.0" stroke="#0284C7" stroke-width="1" opacity="0.3"/><line x1="56.1" y1="48.96" x2="39.0" y2="34.0" stroke="#0284C7" stroke-width="1" opacity="0.3"/></g><text x="1865.0" y="207.0" text-anchor="middle" fill="#1F2937" font-size="13" font-weight="600" letter-spacing="0.2" font-family="'SF Pro Display', system-ui, -apple-system, BlinkMacSystemFont, 'Segoe UI', sans-serif">Email Provider</text>
<g transform="translate(1201.0,691.0)"><polygon points="34.0,9.600000000000001 57.8,19.8 34.0,30.0 10.200000000000003,19.8" fill="#DC2626" stroke="#B91C1C" stroke-width="1"/><polygon points="34.0,23.8 57.8,34.0 34.0,44.2 10.200000000000003,34.0" fill="#EF4444" stroke="#B91C1C" stroke-width="1"/><polygon points="34.0,38.0 57.8,48.2 34.0,58.400000000000006 10.200000000000003,48.2" fill="#F87171" stroke="#B91C1C" stroke-width="1"/></g><text x="1235.0" y="777.0" text-anchor="middle" fill="#1F2937" font-size="13" font-weight="600" letter-spacing="0.2" font-family="'SF Pro Display', system-ui, -apple-system, BlinkMacSystemFont, 'Segoe UI', sans-serif">Redis Cache</text>
<g transform="translate(1411.0,311.0)"><circle cx="34.0" cy="34.0" r="25.84" fill="#231F20"/><text x="34.0" y="42.0" text-anchor="middle" fill="white" font-size="22" font-weight="900" font-family="system-ui">K</text></g><text x="1445.0" y="397.0" text-anchor="middle" fill="#1F2937" font-size="13" font-weight="600" letter-spacing="0.2" font-family="'SF Pro Display', system-ui, -apple-system, BlinkMacSystemFont, 'Segoe UI', sans-serif">Kafka Event Bus</text>
<g transform="translate(1621.0,311.0)"><polygon points="34.0,10.7 7.899999999999999,26.7 60.1,26.7" fill="#92400E"/><rect x="11.899999999999999" y="26.7" width="44.2" height="30.6" rx="2" fill="#D97706"/><line x1="15.899999999999999" y1="33.41" x2="52.1" y2="33.41" stroke="#92400E" stroke-width="1.5"/><line x1="15.899999999999999" y1="42.59" x2="52.1" y2="42.59" stroke="#92400E" stroke-width="1.5"/><rect x="24.0" y="28.7" width="7" height="6" rx="1" fill="#FBBF24"/><rect x="36.0" y="28.7" width="9" height="6" rx="1" fill="#FCD34D"/><rect x="26.0" y="34.022" width="8" height="6" rx="1" fill="#FCD34D"/><rect x="38.0" y="34.022" width="6" height="6" rx="1" fill="#FBBF24"/><rect x="29.0" y="43.202" width="10" height="8.098" rx="2" fill="#92400E"/></g><text x="1655.0" y="397.0" text-anchor="middle" fill="#1F2937" font-size="13" font-weight="600" letter-spacing="0.2" font-family="'SF Pro Display', system-ui, -apple-system, BlinkMacSystemFont, 'Segoe UI', sans-serif">Warehouse Service</text>
<g transform="translate(1621.0,501.0)"><rect x="10.0" y="38.8" width="7.2" height="19.200000000000003" rx="2" fill="#F59E0B"/><rect x="20.2" y="24.400000000000006" width="7.2" height="33.599999999999994" rx="2" fill="#FBBF24"/><rect x="30.4" y="10.0" width="7.2" height="48.0" rx="2" fill="#FCD34D"/><rect x="40.599999999999994" y="29.200000000000003" width="7.2" height="28.799999999999997" rx="2" fill="#F59E0B"/><rect x="50.8" y="17.200000000000003" width="7.2" height="40.8" rx="2" fill="#D97706"/></g><text x="1655.0" y="587.0" text-anchor="middle" fill="#1F2937" font-size="13" font-weight="600" letter-spacing="0.2" font-family="'SF Pro Display', system-ui, -apple-system, BlinkMacSystemFont, 'Segoe UI', sans-serif">Analytics</text><text x="1655.0" y="604.0" text-anchor="middle" fill="#1F2937" font-size="13" font-weight="600" letter-spacing="0.2" font-family="'SF Pro Display', system-ui, -apple-system, BlinkMacSystemFont, 'Segoe UI', sans-serif">Dashboard</text>
<g transform="translate(151.0,501.0)"><rect x="2" y="2" width="64" height="64" rx="6" fill="#6B7280" opacity="0.15"/><rect x="6" y="6" width="56" height="56" rx="4" fill="#374151"/><circle cx="12.0" cy="12.0" r="2.5" fill="#34D399"/><circle cx="12.0" cy="26.666666666666664" r="2.5" fill="#34D399"/><circle cx="12.0" cy="41.33333333333333" r="2.5" fill="#34D399"/><circle cx="12.0" cy="56.0" r="2.5" fill="#34D399"/><circle cx="26.666666666666664" cy="12.0" r="2.5" fill="#34D399"/><circle cx="26.666666666666664" cy="26.666666666666664" r="2.5" fill="#34D399"/><circle cx="26.666666666666664" cy="41.33333333333333" r="2.5" fill="#34D399"/><circle cx="26.666666666666664" cy="56.0" r="2.5" fill="#34D399"/><circle cx="41.33333333333333" cy="12.0" r="2.5" fill="#34D399"/><circle cx="41.33333333333333" cy="26.666666666666664" r="2.5" fill="#34D399"/><circle cx="41.33333333333333" cy="41.33333333333333" r="2.5" fill="#34D399"/><circle cx="41.33333333333333" cy="56.0" r="2.5" fill="#34D399"/><circle cx="56.0" cy="12.0" r="2.5" fill="#34D399"/><circle cx="56.0" cy="26.666666666666664" r="2.5" fill="#34D399"/><circle cx="56.0" cy="41.33333333333333" r="2.5" fill="#34D399"/><circle cx="56.0" cy="56.0" r="2.5" fill="#34D399"/></g><text x="185.0" y="587.0" text-anchor="middle" fill="#1F2937" font-size="13" font-weight="600" letter-spacing="0.2" font-family="'SF Pro Display', system-ui, -apple-system, BlinkMacSystemFont, 'Segoe UI', sans-serif">Monitoring Stack</text>
<svg x="151.0" y="691.0" width="68.0" height="68.0" viewBox="0.0 0.0 256.0 256.0"><path fill="#4A7EBF" d="M53.604 0c29.604 0 53.604 23.992 53.604 53.59c0 29.09-23.189 52.75-52.093 53.553c0 2.461.109 7.111 1.501 9.92c1.933 3.893 13.525 11.144 24.892 11.144h4.084c2.567-18.271 18.257-32.332 37.24-32.332c18.906 0 34.55 13.946 37.211 32.11h21.13c2.661-18.164 18.304-32.11 37.21-32.11c20.775 0 37.617 16.837 37.617 37.607s-16.842 37.606-37.617 37.606c-18.906 0-34.55-13.948-37.21-32.11h-21.129c-2.66 18.162-18.305 32.11-37.212 32.11c-18.87 0-34.494-13.893-37.199-32.007l-4.515.135c-7.435-.056-15.29-2.042-21.598-6.328c-1.72-1.169-3.415-2.397-5.182-3.56v2.441c-.01.79-.153 12.657-.164 25.833v2.79c.005 8.641.073 17.545.277 24.04c.446 14.246 12.034 25.745 24.822 28.436c1.663.35 4.52.394 6.321.238c2.571-18.264 18.26-32.32 37.238-32.32c20.774 0 37.616 16.838 37.616 37.607c0 20.77-16.842 37.607-37.616 37.607c-18.769 0-34.323-13.744-37.153-31.714h-3.254c-24.436-1.334-39.628-23.746-39.363-41.923c.334-22.877.082-45.764.079-68.646v-7.565C18.546 101.286 0 79.606 0 53.591C0 23.992 23.999 0 53.604 0m69.228 191.78c-14.701 0-26.62 11.915-26.62 26.613s11.919 26.614 26.62 26.614s26.62-11.915 26.62-26.614c0-14.698-11.918-26.614-26.62-26.614m0-84.912c-14.701 0-26.62 11.915-26.62 26.614c0 14.697 11.919 26.613 26.62 26.613s26.62-11.916 26.62-26.613c0-14.699-11.918-26.614-26.62-26.614m95.551 0c-14.702 0-26.62 11.915-26.62 26.614c0 14.697 11.918 26.613 26.62 26.613s26.621-11.916 26.621-26.613c0-14.699-11.918-26.614-26.62-26.614m15.161 15.408a5.496 5.496 0 0 1 .17 7.606l-.16.168l-16.31 16.345a5.5 5.5 0 0 1-7.576.198l-.172-.163l-7.985-7.86a5.496 5.496 0 0 1-.06-7.773a5.5 5.5 0 0 1 7.606-.22l.168.16l4.092 4.027l12.452-12.477a5.5 5.5 0 0 1 7.775-.01m-95.99-.08a5.497 5.497 0 0 1 .17 7.606l-.16.168l-16.31 16.344a5.5 5.5 0 0 1-7.576.198l-.172-.163l-7.985-7.86a5.498 5.498 0 0 1 7.546-7.992l.168.16l4.093 4.027l12.451-12.478a5.5 5.5 0 0 1 7.775-.01M53.604 10.993c-23.532 0-42.608 19.07-42.608 42.598c0 23.525 19.076 42.597 42.608 42.597s42.608-19.072 42.608-42.597c0-23.527-19.076-42.598-42.608-42.598M49.171 28.13A744 744 0 0 1 75.7 44.841c7.308 4.82 7.29 13.563-.1 18.394a609 609 0 0 1-27.058 16.712c-7.455 4.34-15.8-.65-16.002-9.344c-.13-5.602-.024-11.21-.032-16.817c-.006-5.454-.113-10.911.019-16.363c.222-9.248 8.736-14.066 16.643-9.293m-5.91 8.872v3.868l-.001 5.674l-.001 3.71v5.482c0 4.23.002 8.394.01 12.557c.003 1.96 1.023 1.88 2.343 1.063q11.408-7.071 22.827-14.127c1.258-.776 1.294-1.587.06-2.365c-8.154-5.139-16.318-10.26-25.238-15.862"/><path fill="#85B3DF" d="M133.227 223.88a5.497 5.497 0 1 0 .001-10.996a5.497 5.497 0 0 0 0 10.995m-21.049.001a5.497 5.497 0 1 0 0-10.996a5.497 5.497 0 0 0 0 10.995m106.205 21.128c-14.702 0-26.62-11.915-26.62-26.614c0-14.698 11.918-26.614 26.62-26.614c14.701 0 26.62 11.916 26.62 26.614s-11.919 26.614-26.62 26.614m0-64.22c-18.906 0-34.55 13.947-37.211 32.11h-6.153c-2.685 0-4.864 2.461-4.864 5.496s2.179 5.497 4.864 5.497h6.153c2.66 18.163 18.305 32.11 37.21 32.11C239.159 256 256 239.162 256 218.393c0-20.77-16.842-37.607-37.616-37.607"/></svg><text x="185.0" y="777.0" text-anchor="middle" fill="#1F2937" font-size="13" font-weight="600" letter-spacing="0.2" font-family="'SF Pro Display', system-ui, -apple-system, BlinkMacSystemFont, 'Segoe UI', sans-serif">CI/CD Pipeline</text>
<svg x="1201.0" y="121.0" width="68.0" height="68.0" viewBox="0.0 0.0 256.0 256.0"><path fill="#FFD814" d="m0 0l127.56 256L256 0zm142.698 51.384h14.859v14.859h-14.859zm-29.557 59.354H98.323V95.92h14.818zm0-22.267H98.323V73.692h14.818zm0-22.228H98.323V51.384h14.818zm22.428 66.763h-14.818v-14.858h14.818zm0-22.268h-14.818V95.92h14.818zm0-22.267h-14.818V73.692h14.818zm0-22.228h-14.818V51.384h14.818zm7.13 7.45h14.858V88.51h-14.859zm0 37.085V95.96h14.858v14.818z"/></svg><text x="1235.0" y="207.0" text-anchor="middle" fill="#1F2937" font-size="13" font-weight="600" letter-spacing="0.2" font-family="'SF Pro Display', system-ui, -apple-system, BlinkMacSystemFont, 'Segoe UI', sans-serif">Vault Secrets</text><text x="1235.0" y="224.0" text-anchor="middle" fill="#1F2937" font-size="13" font-weight="600" letter-spacing="0.2" font-family="'SF Pro Display', system-ui, -apple-system, BlinkMacSystemFont, 'Segoe UI', sans-serif">Manager</text>
<g transform="translate(361.0,311.0)"><path d="M17.0,43.0 Q13.0,47.0 17.0,53.0 Q34.0,61.0 56.0,49.0 Q56.0,43.0 52.0,41.0" fill="#2496ED" opacity="0.3"/><rect x="21.0" y="32.0" width="7" height="5" rx="1" fill="#2496ED" stroke="#1D7DC4" stroke-width="0.5"/><rect x="29.5" y="32.0" width="7" height="5" rx="1" fill="#2496ED" stroke="#1D7DC4" stroke-width="0.5"/><rect x="38.0" y="32.0" width="7" height="5" rx="1" fill="#2496ED" stroke="#1D7DC4" stroke-width="0.5"/><rect x="29.5" y="25.5" width="7" height="5" rx="1" fill="#2496ED" stroke="#1D7DC4" stroke-width="0.5"/><rect x="38.0" y="25.5" width="7" height="5" rx="1" fill="#2496ED" stroke="#1D7DC4" stroke-width="0.5"/><rect x="46.5" y="25.5" width="7" height="5" rx="1" fill="#2496ED" stroke="#1D7DC4" stroke-width="0.5"/><rect x="38.0" y="19.0" width="7" height="5" rx="1" fill="#2496ED" stroke="#1D7DC4" stroke-width="0.5"/><rect x="46.5" y="19.0" width="7" height="5" rx="1" fill="#2496ED" stroke="#1D7DC4" stroke-width="0.5"/><rect x="55.0" y="19.0" width="7" height="5" rx="1" fill="#2496ED" stroke="#1D7DC4" stroke-width="0.5"/></g><text x="395.0" y="397.0" text-anchor="middle" fill="#1F2937" font-size="13" font-weight="600" letter-spacing="0.2" font-family="'SF Pro Display', system-ui, -apple-system, BlinkMacSystemFont, 'Segoe UI', sans-serif">Container Registry</text>
<g filter="url(#badge-shadow)"><circle cx="290.0" cy="155.0" r="17" fill="white"/><circle cx="290.0" cy="155.0" r="14" fill="#6366F1"/><text x="290.0" y="159.0" text-anchor="middle" fill="white" font-size="11" font-weight="700" letter-spacing="0.3" font-family="'SF Pro Display', system-ui, -apple-system, BlinkMacSystemFont, 'Segoe UI', sans-serif">1</text></g>
<g filter="url(#badge-shadow)"><circle cx="287.0" cy="269.0" r="17" fill="white"/><circle cx="287.0" cy="269.0" r="14" fill="#8B5CF6"/><text x="287.0" y="273.0" text-anchor="middle" fill="white" font-size="11" font-weight="700" letter-spacing="0.3" font-family="'SF Pro Display', system-ui, -apple-system, BlinkMacSystemFont, 'Segoe UI', sans-serif">2</text></g>
<g filter="url(#badge-shadow)"><circle cx="500.0" cy="155.0" r="17" fill="white"/><circle cx="500.0" cy="155.0" r="14" fill="#5B21B6"/><text x="500.0" y="159.0" text-anchor="middle" fill="white" font-size="11" font-weight="700" letter-spacing="0.3" font-family="'SF Pro Display', system-ui, -apple-system, BlinkMacSystemFont, 'Segoe UI', sans-serif">6</text></g>
<g filter="url(#badge-shadow)"><circle cx="710.0" cy="155.0" r="17" fill="white"/><circle cx="710.0" cy="155.0" r="14" fill="#5B21B6"/><text x="710.0" y="159.0" text-anchor="middle" fill="white" font-size="11" font-weight="700" letter-spacing="0.3" font-family="'SF Pro Display', system-ui, -apple-system, BlinkMacSystemFont, 'Segoe UI', sans-serif">16</text></g>
<g filter="url(#badge-shadow)"><circle cx="920.0" cy="155.0" r="17" fill="white"/><circle cx="920.0" cy="155.0" r="14" fill="#4F46E5"/><text x="920.0" y="159.0" text-anchor="middle" fill="white" font-size="11" font-weight="700" letter-spacing="0.3" font-family="'SF Pro Display', system-ui, -apple-system, BlinkMacSystemFont, 'Segoe UI', sans-serif">7</text></g>
<g filter="url(#badge-shadow)"><circle cx="1130.0" cy="155.0" r="17" fill="white"/><circle cx="1130.0" cy="155.0" r="14" fill="#4F46E5"/><text x="1130.0" y="159.0" text-anchor="middle" fill="white" font-size="11" font-weight="700" letter-spacing="0.3" font-family="'SF Pro Display', system-ui, -apple-system, BlinkMacSystemFont, 'Segoe UI', sans-serif">17</text></g>
<g filter="url(#badge-shadow)"><circle cx="911.0" cy="231.0" r="17" fill="white"/><circle cx="911.0" cy="231.0" r="14" fill="#4338CA"/><text x="911.0" y="235.0" text-anchor="middle" fill="white" font-size="11" font-weight="700" letter-spacing="0.3" font-family="'SF Pro Display', system-ui, -apple-system, BlinkMacSystemFont, 'Segoe UI', sans-serif">8</text></g>
<g filter="url(#badge-shadow)"><circle cx="917.0" cy="307.0" r="17" fill="white"/><circle cx="917.0" cy="307.0" r="14" fill="#3730A3"/><text x="917.0" y="311.0" text-anchor="middle" fill="white" font-size="11" font-weight="700" letter-spacing="0.3" font-family="'SF Pro Display', system-ui, -apple-system, BlinkMacSystemFont, 'Segoe UI', sans-serif">9</text></g>
<g filter="url(#badge-shadow)"><circle cx="923.0" cy="383.0" r="17" fill="white"/><circle cx="923.0" cy="383.0" r="14" fill="#312E81"/><text x="923.0" y="387.0" text-anchor="middle" fill="white" font-size="11" font-weight="700" letter-spacing="0.3" font-family="'SF Pro Display', system-ui, -apple-system, BlinkMacSystemFont, 'Segoe UI', sans-serif">10</text></g>
<g filter="url(#badge-shadow)"><circle cx="929.0" cy="459.0" r="17" fill="white"/><circle cx="929.0" cy="459.0" r="14" fill="#6366F1"/><text x="929.0" y="463.0" text-anchor="middle" fill="white" font-size="11" font-weight="700" letter-spacing="0.3" font-family="'SF Pro Display', system-ui, -apple-system, BlinkMacSystemFont, 'Segoe UI', sans-serif">11</text></g>
<g filter="url(#badge-shadow)"><circle cx="1121.0" cy="459.0" r="17" fill="white"/><circle cx="1121.0" cy="459.0" r="14" fill="#4338CA"/><text x="1121.0" y="463.0" text-anchor="middle" fill="white" font-size="11" font-weight="700" letter-spacing="0.3" font-family="'SF Pro Display', system-ui, -apple-system, BlinkMacSystemFont, 'Segoe UI', sans-serif">18</text></g>
<g filter="url(#badge-shadow)"><circle cx="1133.0" cy="611.0" r="17" fill="white"/><circle cx="1133.0" cy="611.0" r="14" fill="#3730A3"/><text x="1133.0" y="615.0" text-anchor="middle" fill="white" font-size="11" font-weight="700" letter-spacing="0.3" font-family="'SF Pro Display', system-ui, -apple-system, BlinkMacSystemFont, 'Segoe UI', sans-serif">19</text></g>
<g filter="url(#badge-shadow)"><circle cx="1139.0" cy="839.0" r="17" fill="white"/><circle cx="1139.0" cy="839.0" r="14" fill="#8B5CF6"/><text x="1139.0" y="843.0" text-anchor="middle" fill="white" font-size="11" font-weight="700" letter-spacing="0.3" font-family="'SF Pro Display', system-ui, -apple-system, BlinkMacSystemFont, 'Segoe UI', sans-serif">22</text></g>
<g filter="url(#badge-shadow)"><circle cx="1130.0" cy="725.0" r="17" fill="white"/><circle cx="1130.0" cy="725.0" r="14" fill="#312E81"/><text x="1130.0" y="729.0" text-anchor="middle" fill="white" font-size="11" font-weight="700" letter-spacing="0.3" font-family="'SF Pro Display', system-ui, -apple-system, BlinkMacSystemFont, 'Segoe UI', sans-serif">20</text></g>
<g filter="url(#badge-shadow)"><circle cx="1127.0" cy="649.0" r="17" fill="white"/><circle cx="1127.0" cy="649.0" r="14" fill="#6366F1"/><text x="1127.0" y="653.0" text-anchor="middle" fill="white" font-size="11" font-weight="700" letter-spacing="0.3" font-family="'SF Pro Display', system-ui, -apple-system, BlinkMacSystemFont, 'Segoe UI', sans-serif">21</text></g>
<g filter="url(#badge-shadow)"><circle cx="1337.0" cy="383.0" r="17" fill="white"/><circle cx="1337.0" cy="383.0" r="14" fill="#7C3AED"/><text x="1337.0" y="387.0" text-anchor="middle" fill="white" font-size="11" font-weight="700" letter-spacing="0.3" font-family="'SF Pro Display', system-ui, -apple-system, BlinkMacSystemFont, 'Segoe UI', sans-serif">24</text></g>
<g filter="url(#badge-shadow)"><circle cx="1343.0" cy="459.0" r="17" fill="white"/><circle cx="1343.0" cy="459.0" r="14" fill="#6D28D9"/><text x="1343.0" y="463.0" text-anchor="middle" fill="white" font-size="11" font-weight="700" letter-spacing="0.3" font-family="'SF Pro Display', system-ui, -apple-system, BlinkMacSystemFont, 'Segoe UI', sans-serif">25</text></g>
<g filter="url(#badge-shadow)"><circle cx="1547.0" cy="269.0" r="17" fill="white"/><circle cx="1547.0" cy="269.0" r="14" fill="#8B5CF6"/><text x="1547.0" y="273.0" text-anchor="middle" fill="white" font-size="11" font-weight="700" letter-spacing="0.3" font-family="'SF Pro Display', system-ui, -apple-system, BlinkMacSystemFont, 'Segoe UI', sans-serif">12</text></g>
<g filter="url(#badge-shadow)"><circle cx="1550.0" cy="345.0" r="17" fill="white"/><circle cx="1550.0" cy="345.0" r="14" fill="#A855F7"/><text x="1550.0" y="349.0" text-anchor="middle" fill="white" font-size="11" font-weight="700" letter-spacing="0.3" font-family="'SF Pro Display', system-ui, -apple-system, BlinkMacSystemFont, 'Segoe UI', sans-serif">13</text></g>
<g filter="url(#badge-shadow)"><circle cx="1553.0" cy="421.0" r="17" fill="white"/><circle cx="1553.0" cy="421.0" r="14" fill="#7C3AED"/><text x="1553.0" y="425.0" text-anchor="middle" fill="white" font-size="11" font-weight="700" letter-spacing="0.3" font-family="'SF Pro Display', system-ui, -apple-system, BlinkMacSystemFont, 'Segoe UI', sans-serif">14</text></g>
<g filter="url(#badge-shadow)"><circle cx="1760.0" cy="155.0" r="17" fill="white"/><circle cx="1760.0" cy="155.0" r="14" fill="#A855F7"/><text x="1760.0" y="159.0" text-anchor="middle" fill="white" font-size="11" font-weight="700" letter-spacing="0.3" font-family="'SF Pro Display', system-ui, -apple-system, BlinkMacSystemFont, 'Segoe UI', sans-serif">23</text></g>
<g filter="url(#badge-shadow)"><circle cx="500.0" cy="383.0" r="17" fill="white"/><circle cx="500.0" cy="383.0" r="14" fill="#A855F7"/><text x="500.0" y="387.0" text-anchor="middle" fill="white" font-size="11" font-weight="700" letter-spacing="0.3" font-family="'SF Pro Display', system-ui, -apple-system, BlinkMacSystemFont, 'Segoe UI', sans-serif">3</text></g>
<g filter="url(#badge-shadow)"><circle cx="815.0" cy="459.0" r="17" fill="white"/><circle cx="815.0" cy="459.0" r="14" fill="#7C3AED"/><text x="815.0" y="463.0" text-anchor="middle" fill="white" font-size="11" font-weight="700" letter-spacing="0.3" font-family="'SF Pro Display', system-ui, -apple-system, BlinkMacSystemFont, 'Segoe UI', sans-serif">4</text></g>
<g filter="url(#badge-shadow)"><circle cx="293.0" cy="573.0" r="17" fill="white"/><circle cx="293.0" cy="573.0" r="14" fill="#6D28D9"/><text x="293.0" y="577.0" text-anchor="middle" fill="white" font-size="11" font-weight="700" letter-spacing="0.3" font-family="'SF Pro Display', system-ui, -apple-system, BlinkMacSystemFont, 'Segoe UI', sans-serif">5</text></g>
<g filter="url(#badge-shadow)"><circle cx="605.0" cy="269.0" r="17" fill="white"/><circle cx="605.0" cy="269.0" r="14" fill="#6D28D9"/><text x="605.0" y="273.0" text-anchor="middle" fill="white" font-size="11" font-weight="700" letter-spacing="0.3" font-family="'SF Pro Display', system-ui, -apple-system, BlinkMacSystemFont, 'Segoe UI', sans-serif">15</text></g>
</svg>